# Blender 4.2.3 LTS
# www.blender.org
mtllib surface.mtl
o obj1
v 1.385045 -0.049355 -1.397882
v 1.385039 -0.049206 -1.399590
v 1.386671 -0.049043 -1.399520
v 1.386754 -0.049219 -1.397890
v 1.388048 -0.048619 -1.399399
v 1.388157 -0.048769 -1.397898
v 1.389170 -0.047932 -1.399226
v 1.389253 -0.048005 -1.397906
v 1.385038 -0.048746 -1.400989
v 1.386541 -0.048608 -1.400893
v 1.387840 -0.048259 -1.400694
v 1.388934 -0.047701 -1.400390
v 1.385042 -0.047974 -1.402079
v 1.386363 -0.047911 -1.402008
v 1.387531 -0.047691 -1.401781
v 1.388546 -0.047313 -1.401399
v 1.397663 -0.038192 1.385618
v 1.399372 -0.038056 1.385610
v 1.399304 -0.037867 1.387240
v 1.397672 -0.038029 1.387326
v 1.399186 -0.037420 1.388610
v 1.397684 -0.037558 1.388721
v 1.399018 -0.036715 1.389721
v 1.397698 -0.036778 1.389805
v 1.400775 -0.037606 1.385602
v 1.400680 -0.037443 1.387103
v 1.400483 -0.037074 1.388396
v 1.400184 -0.036497 1.389482
v 1.401871 -0.036842 1.385594
v 1.401800 -0.036758 1.386913
v 1.401575 -0.036518 1.388078
v 1.401196 -0.036121 1.389088
v -1.385680 -0.006536 1.398109
v -1.385670 -0.006374 1.399816
v -1.387298 -0.006174 1.399745
v -1.387385 -0.006361 1.398116
v -1.388665 -0.005719 1.399620
v -1.388778 -0.005879 1.398120
v -1.389771 -0.005009 1.399441
v -1.389856 -0.005091 1.398122
v -1.385659 -0.005902 1.401211
v -1.387158 -0.005730 1.401114
v -1.388448 -0.005354 1.400911
v -1.389530 -0.004774 1.400603
v -1.385645 -0.005122 1.402295
v -1.386964 -0.005029 1.402223
v -1.388127 -0.004784 1.401994
v -1.389133 -0.004386 1.401609
v -1.398298 -0.017699 -1.385391
v -1.400004 -0.017524 -1.385384
v -1.399931 -0.017351 -1.387016
v -1.398304 -0.017551 -1.387100
v -1.399803 -0.016918 -1.388389
v -1.398305 -0.017090 -1.388499
v -1.399619 -0.016226 -1.389506
v -1.398301 -0.016318 -1.389589
v -1.401396 -0.017043 -1.385380
v -1.401297 -0.016895 -1.386882
v -1.401092 -0.016540 -1.388178
v -1.400780 -0.015978 -1.389269
v -1.402474 -0.016254 -1.385378
v -1.402401 -0.016183 -1.386698
v -1.402171 -0.015957 -1.387865
v -1.401783 -0.015577 -1.388878
v 1.391205 0.000883 -1.398111
v 1.391042 0.000878 -1.399818
v 1.390880 0.002511 -1.399746
v 1.391069 0.002593 -1.398117
v 1.390456 0.003888 -1.399620
v 1.390620 0.003995 -1.398121
v 1.389771 0.005009 -1.399441
v 1.389856 0.005091 -1.398122
v 1.390570 0.000878 -1.401214
v 1.390432 0.002381 -1.401115
v 1.390086 0.003679 -1.400912
v 1.389530 0.004774 -1.400603
v 1.389789 0.000882 -1.402297
v 1.389727 0.002203 -1.402224
v 1.389508 0.003371 -1.401995
v 1.389133 0.004386 -1.401609
v 1.403823 0.012046 1.385389
v 1.403687 0.013756 1.385383
v 1.403512 0.013687 1.387014
v 1.403676 0.012055 1.387097
v 1.403077 0.013568 1.388388
v 1.403216 0.012066 1.388497
v 1.402382 0.013399 1.389505
v 1.402445 0.012079 1.389587
v 1.403238 0.015158 1.385379
v 1.403088 0.015063 1.386881
v 1.402729 0.014865 1.388177
v 1.402161 0.014565 1.389268
v 1.402474 0.016254 1.385378
v 1.402401 0.016183 1.386698
v 1.402171 0.015957 1.387865
v 1.401783 0.015577 1.388878
v 1.403316 -0.032666 1.385571
v 1.403168 -0.032657 1.387279
v 1.402968 -0.034286 1.387209
v 1.403141 -0.034372 1.385578
v 1.402512 -0.035653 1.387087
v 1.402659 -0.035764 1.385586
v 1.401800 -0.036758 1.386913
v 1.401871 -0.036842 1.385594
v 1.402709 -0.032647 1.388679
v 1.402536 -0.034146 1.388582
v 1.402158 -0.035436 1.388382
v 1.401575 -0.036518 1.388078
v 1.401937 -0.032633 1.389769
v 1.401844 -0.033952 1.389697
v 1.401597 -0.035115 1.389470
v 1.401196 -0.036121 1.389088
v 1.390698 -0.043829 -1.397929
v 1.390523 -0.045535 -1.397922
v 1.390335 -0.045462 -1.399552
v 1.390535 -0.043834 -1.399637
v 1.389890 -0.045333 -1.400921
v 1.390063 -0.043835 -1.401032
v 1.389189 -0.045149 -1.402032
v 1.389281 -0.043830 -1.402115
v 1.390041 -0.046927 -1.397914
v 1.389880 -0.046828 -1.399415
v 1.389515 -0.046622 -1.400708
v 1.388944 -0.046309 -1.401793
v 1.389253 -0.048005 -1.397906
v 1.389170 -0.047932 -1.399226
v 1.388934 -0.047701 -1.400390
v 1.388546 -0.047313 -1.401399
v 1.398259 0.012132 1.391003
v 1.399966 0.012112 1.390841
v 1.399906 0.013743 1.390653
v 1.398278 0.013839 1.390841
v 1.399791 0.015114 1.390208
v 1.398292 0.015235 1.390370
v 1.399619 0.016226 1.389506
v 1.398301 0.016318 1.389589
v 1.401362 0.012094 1.390369
v 1.401274 0.013596 1.390208
v 1.401081 0.014890 1.389841
v 1.400780 0.015978 1.389269
v 1.402445 0.012079 1.389587
v 1.402382 0.013399 1.389505
v 1.402161 0.014565 1.389268
v 1.401783 0.015577 1.388878
v -1.385083 0.043788 1.403494
v -1.385064 0.045495 1.403332
v -1.386696 0.045435 1.403158
v -1.386792 0.043807 1.403346
v -1.388071 0.045320 1.402725
v -1.388191 0.043821 1.402887
v -1.389189 0.045149 1.402032
v -1.389281 0.043830 1.402115
v -1.385051 0.046891 1.402860
v -1.386553 0.046804 1.402712
v -1.387851 0.046610 1.402356
v -1.388944 0.046309 1.401793
v -1.385042 0.047974 1.402079
v -1.386363 0.047911 1.402008
v -1.387531 0.047691 1.401781
v -1.388546 0.047313 1.401399
v -1.385591 -0.000924 1.403675
v -1.387299 -0.000906 1.403528
v -1.387241 -0.002537 1.403352
v -1.385611 -0.002633 1.403527
v -1.387129 -0.003912 1.402918
v -1.385629 -0.004032 1.403067
v -1.386964 -0.005029 1.402223
v -1.385645 -0.005122 1.402295
v -1.388699 -0.000891 1.403068
v -1.388613 -0.002394 1.402919
v -1.388422 -0.003692 1.402561
v -1.388127 -0.004784 1.401994
v -1.389789 -0.000882 1.402297
v -1.389727 -0.002203 1.402224
v -1.389508 -0.003371 1.401995
v -1.389133 -0.004386 1.401609
v 1.397752 -0.032580 1.391185
v 1.397732 -0.034289 1.391037
v 1.399362 -0.034230 1.390848
v 1.399459 -0.032600 1.391022
v 1.400733 -0.034118 1.390401
v 1.400854 -0.032618 1.390550
v 1.401844 -0.033952 1.389697
v 1.401937 -0.032633 1.389769
v 1.397714 -0.035688 1.390577
v 1.399215 -0.035602 1.390414
v 1.400509 -0.035411 1.390045
v 1.401597 -0.035115 1.389470
v 1.397698 -0.036778 1.389805
v 1.399018 -0.036715 1.389721
v 1.400184 -0.036497 1.389482
v 1.401196 -0.036121 1.389088
v -1.390698 0.043829 1.397929
v -1.390535 0.043834 1.399637
v -1.390335 0.045462 1.399551
v -1.390523 0.045535 1.397922
v -1.389880 0.046828 1.399414
v -1.390041 0.046927 1.397914
v -1.389170 0.047932 1.399226
v -1.389253 0.048005 1.397906
v -1.390063 0.043835 1.401032
v -1.389891 0.045333 1.400921
v -1.389515 0.046622 1.400708
v -1.388934 0.047701 1.400390
v -1.389281 0.043830 1.402115
v -1.389189 0.045149 1.402032
v -1.388944 0.046309 1.401793
v -1.388546 0.047313 1.401399
v -1.403316 0.032666 -1.385571
v -1.403141 0.034372 -1.385578
v -1.402968 0.034286 -1.387209
v -1.403168 0.032657 -1.387279
v -1.402536 0.034146 -1.388582
v -1.402709 0.032647 -1.388679
v -1.401844 0.033952 -1.389697
v -1.401937 0.032633 -1.389769
v -1.402659 0.035764 -1.385586
v -1.402512 0.035653 -1.387087
v -1.402158 0.035436 -1.388382
v -1.401597 0.035115 -1.389470
v -1.401871 0.036842 -1.385594
v -1.401800 0.036758 -1.386913
v -1.401575 0.036518 -1.388078
v -1.401196 0.036121 -1.389088
v -1.403823 -0.012046 -1.385389
v -1.403676 -0.012055 -1.387097
v -1.403512 -0.013687 -1.387014
v -1.403687 -0.013756 -1.385383
v -1.403088 -0.015063 -1.386881
v -1.403238 -0.015158 -1.385379
v -1.402401 -0.016183 -1.386698
v -1.402474 -0.016254 -1.385378
v -1.403216 -0.012066 -1.388497
v -1.403078 -0.013568 -1.388388
v -1.402729 -0.014865 -1.388177
v -1.402171 -0.015957 -1.387865
v -1.402445 -0.012079 -1.389587
v -1.402382 -0.013399 -1.389505
v -1.402161 -0.014565 -1.389268
v -1.401783 -0.015577 -1.388878
v -1.391205 -0.000883 1.398111
v -1.391069 -0.002593 1.398117
v -1.390880 -0.002511 1.399746
v -1.391042 -0.000878 1.399818
v -1.390432 -0.002381 1.401115
v -1.390570 -0.000878 1.401214
v -1.389727 -0.002203 1.402224
v -1.389789 -0.000882 1.402297
v -1.390620 -0.003995 1.398121
v -1.390456 -0.003887 1.399621
v -1.390086 -0.003679 1.400912
v -1.389508 -0.003371 1.401995
v -1.389856 -0.005091 1.398122
v -1.389771 -0.005009 1.399441
v -1.389530 -0.004774 1.400603
v -1.389133 -0.004386 1.401609
v -1.397752 0.032580 -1.391185
v -1.399459 0.032600 -1.391022
v -1.399361 0.034230 -1.390848
v -1.397732 0.034289 -1.391037
v -1.399215 0.035602 -1.390414
v -1.397714 0.035688 -1.390577
v -1.399018 0.036715 -1.389721
v -1.397698 0.036778 -1.389805
v -1.400854 0.032618 -1.390550
v -1.400733 0.034118 -1.390401
v -1.400509 0.035411 -1.390045
v -1.400184 0.036497 -1.389482
v -1.401937 0.032633 -1.389769
v -1.401844 0.033952 -1.389697
v -1.401597 0.035115 -1.389470
v -1.401196 0.036121 -1.389088
v 1.385591 0.000924 -1.403675
v 1.385611 0.002633 -1.403527
v 1.387241 0.002537 -1.403352
v 1.387299 0.000906 -1.403528
v 1.388613 0.002394 -1.402918
v 1.388699 0.000891 -1.403068
v 1.389727 0.002203 -1.402224
v 1.389789 0.000882 -1.402297
v 1.385629 0.004032 -1.403067
v 1.387129 0.003912 -1.402918
v 1.388422 0.003692 -1.402561
v 1.389508 0.003371 -1.401995
v 1.385645 0.005122 -1.402295
v 1.386964 0.005029 -1.402223
v 1.388127 0.004784 -1.401994
v 1.389133 0.004386 -1.401609
v 1.385083 -0.043788 -1.403494
v 1.386792 -0.043807 -1.403346
v 1.386696 -0.045435 -1.403158
v 1.385064 -0.045495 -1.403332
v 1.386553 -0.046804 -1.402712
v 1.385051 -0.046891 -1.402860
v 1.386363 -0.047911 -1.402008
v 1.385042 -0.047974 -1.402079
v 1.388191 -0.043821 -1.402887
v 1.388071 -0.045320 -1.402725
v 1.387851 -0.046610 -1.402356
v 1.387531 -0.047691 -1.401781
v 1.389281 -0.043830 -1.402115
v 1.389189 -0.045149 -1.402032
v 1.388944 -0.046309 -1.401793
v 1.388546 -0.047313 -1.401399
v -1.398259 -0.012132 -1.391003
v -1.398278 -0.013839 -1.390841
v -1.399907 -0.013743 -1.390653
v -1.399966 -0.012112 -1.390841
v -1.401274 -0.013596 -1.390207
v -1.401362 -0.012094 -1.390369
v -1.402382 -0.013399 -1.389505
v -1.402445 -0.012079 -1.389587
v -1.398292 -0.015235 -1.390370
v -1.399791 -0.015114 -1.390208
v -1.401081 -0.014890 -1.389841
v -1.402161 -0.014565 -1.389268
v -1.398301 -0.016318 -1.389589
v -1.399619 -0.016226 -1.389506
v -1.400780 -0.015978 -1.389269
v -1.401783 -0.015577 -1.388878
vn -0.9953 0.0754 -0.0600
vn -0.9744 0.2189 -0.0520
vn -0.9520 0.2231 -0.2097
vn -0.9520 0.2231 -0.2096
vn -0.9768 0.0658 -0.2038
vn -0.9768 0.0660 -0.2040
vn -0.8771 0.2157 -0.4291
vn -0.9768 0.0660 -0.2039
vn -0.8933 0.0644 -0.4449
vn -0.8933 0.0645 -0.4449
vn -0.6953 0.1949 -0.6918
vn -0.6952 0.1950 -0.6919
vn -0.7087 0.0579 -0.7031
vn -0.9744 0.2189 -0.0521
vn -0.8871 0.4585 -0.0539
vn -0.8735 0.4414 -0.2052
vn -0.9743 0.2190 -0.0521
vn -0.8735 0.4414 -0.2054
vn -0.9519 0.2232 -0.2097
vn -0.8736 0.4413 -0.2052
vn -0.8131 0.4164 -0.4068
vn -0.8131 0.4163 -0.4068
vn -0.8771 0.2158 -0.4291
vn -0.8772 0.2157 -0.4290
vn -0.6539 0.3808 -0.6538
vn -0.6538 0.3809 -0.6538
vn -0.6952 0.1950 -0.6918
vn -0.8870 0.4585 -0.0539
vn -0.6983 0.7139 -0.0523
vn -0.6871 0.7014 -0.1896
vn -0.8870 0.4586 -0.0539
vn -0.6872 0.7013 -0.1895
vn -0.8736 0.4414 -0.2052
vn -0.6871 0.7013 -0.1896
vn -0.6494 0.6611 -0.3757
vn -0.8736 0.4413 -0.2053
vn -0.6494 0.6612 -0.3757
vn -0.8131 0.4165 -0.4067
vn -0.5734 0.5816 -0.5771
vn -0.5734 0.5816 -0.5770
vn -0.9968 -0.0532 -0.0595
vn -0.9780 -0.0455 -0.2034
vn -0.9568 -0.2031 -0.2080
vn -0.9968 -0.0532 -0.0596
vn -0.9568 -0.2031 -0.2079
vn -0.9791 -0.1971 -0.0503
vn -0.8833 -0.4230 -0.2018
vn -0.9791 -0.1971 -0.0505
vn -0.8834 -0.4230 -0.2017
vn -0.8972 -0.4387 -0.0502
vn -0.8972 -0.4387 -0.0503
vn -0.8834 -0.4230 -0.2018
vn -0.7029 -0.6871 -0.1839
vn -0.7143 -0.6983 -0.0465
vn -0.9781 -0.0453 -0.2034
vn -0.8945 -0.0477 -0.4444
vn -0.8818 -0.1993 -0.4274
vn -0.8223 -0.4012 -0.4035
vn -0.8224 -0.4012 -0.4034
vn -0.6644 -0.6492 -0.3703
vn -0.6643 -0.6492 -0.3704
vn -0.7030 -0.6871 -0.1839
vn -0.8946 -0.0477 -0.4444
vn -0.7099 -0.0474 -0.7027
vn -0.6965 -0.1829 -0.6939
vn -0.8945 -0.0478 -0.4445
vn -0.6995 -0.1847 -0.6904
vn -0.8818 -0.1992 -0.4275
vn -0.8819 -0.1992 -0.4274
vn -0.6996 -0.1847 -0.6903
vn -0.6632 -0.3713 -0.6499
vn -0.6624 -0.3711 -0.6508
vn -0.8224 -0.4011 -0.4035
vn -0.6625 -0.3710 -0.6508
vn -0.5894 -0.5732 -0.5693
vn -0.5865 -0.5731 -0.5724
vn -0.6644 -0.6492 -0.3704
vn -0.9962 -0.0527 0.0690
vn -0.9786 -0.1967 0.0608
vn -0.9549 -0.2014 0.2183
vn -0.9761 -0.0437 0.2127
vn -0.9762 -0.0437 0.2126
vn -0.9549 -0.2014 0.2182
vn -0.8779 -0.1957 0.4370
vn -0.8779 -0.1958 0.4370
vn -0.8905 -0.0442 0.4528
vn -0.6932 -0.1791 0.6981
vn -0.8905 -0.0442 0.4529
vn -0.7034 -0.0418 0.7095
vn -0.9786 -0.1968 0.0608
vn -0.8967 -0.4382 0.0619
vn -0.8815 -0.4214 0.2131
vn -0.8815 -0.4213 0.2131
vn -0.8187 -0.3978 0.4141
vn -0.8779 -0.1957 0.4371
vn -0.6565 -0.3658 0.6597
vn -0.8967 -0.4383 0.0619
vn -0.7139 -0.6978 0.0586
vn -0.7012 -0.6855 0.1957
vn -0.8815 -0.4214 0.2132
vn -0.7012 -0.6855 0.1958
vn -0.6609 -0.6463 0.3815
vn -0.8815 -0.4213 0.2132
vn -0.6609 -0.6462 0.3816
vn -0.5812 -0.5685 0.5823
vn -0.6565 -0.3659 0.6597
vn -0.9948 0.0759 0.0685
vn -0.9749 0.0676 0.2122
vn -0.9501 0.2247 0.2166
vn -0.9501 0.2247 0.2165
vn -0.9739 0.2193 0.0592
vn -0.9738 0.2194 0.0592
vn -0.8716 0.4430 0.2097
vn -0.9739 0.2193 0.0593
vn -0.8716 0.4431 0.2096
vn -0.8865 0.4590 0.0584
vn -0.8717 0.4430 0.2096
vn -0.6854 0.7029 0.1901
vn -0.8865 0.4590 0.0583
vn -0.6978 0.7143 0.0529
vn -0.9749 0.0676 0.2121
vn -0.8892 0.0681 0.4524
vn -0.8732 0.2192 0.4353
vn -0.9749 0.0675 0.2121
vn -0.9500 0.2248 0.2165
vn -0.8732 0.2192 0.4354
vn -0.8094 0.4197 0.4108
vn -0.9500 0.2248 0.2166
vn -0.8717 0.4430 0.2095
vn -0.6460 0.6641 0.3763
vn -0.8717 0.4430 0.2097
vn -0.6854 0.7029 0.1902
vn -0.8892 0.0680 0.4524
vn -0.7023 0.0634 0.7091
vn -0.6889 0.2006 0.6965
vn -0.6889 0.2005 0.6966
vn -0.8732 0.2191 0.4353
vn -0.6480 0.3860 0.6566
vn -0.6480 0.3859 0.6566
vn -0.8094 0.4196 0.4108
vn -0.6479 0.3860 0.6566
vn -0.5681 0.5863 0.5775
vn -0.8094 0.4197 0.4107
vn -0.6461 0.6641 0.3762
vn 0.0605 0.0596 -0.9964
vn 0.0536 0.2035 -0.9776
vn 0.2113 0.2068 -0.9553
vn 0.0605 0.0595 -0.9964
vn 0.2113 0.2067 -0.9553
vn 0.2043 0.0493 -0.9777
vn 0.2032 0.0527 -0.9777
vn 0.4305 0.1990 -0.8804
vn 0.2043 0.0494 -0.9777
vn 0.4306 0.1990 -0.8804
vn 0.4452 0.0475 -0.8942
vn 0.5455 0.1768 -0.8193
vn 0.5454 0.1769 -0.8193
vn 0.5682 0.0420 -0.8218
vn 0.0536 0.2034 -0.9776
vn 0.0572 0.4444 -0.8940
vn 0.2084 0.4263 -0.8802
vn 0.0537 0.2034 -0.9776
vn 0.2084 0.4263 -0.8803
vn 0.2112 0.2068 -0.9553
vn 0.4097 0.4008 -0.8195
vn 0.4305 0.1991 -0.8804
vn 0.4096 0.4008 -0.8195
vn 0.5163 0.3606 -0.7768
vn 0.5454 0.1768 -0.8193
vn 0.0574 0.7026 -0.7092
vn 0.1946 0.6893 -0.6979
vn 0.1945 0.6893 -0.6979
vn 0.2084 0.4262 -0.8803
vn 0.1945 0.6892 -0.6979
vn 0.3804 0.6483 -0.6596
vn 0.4097 0.4008 -0.8194
vn 0.3804 0.6483 -0.6595
vn 0.5026 0.6048 -0.6177
vn 0.5163 0.3607 -0.7767
vn 0.0591 -0.0690 -0.9959
vn 0.2029 -0.0620 -0.9772
vn 0.2063 -0.2194 -0.9536
vn 0.0590 -0.0689 -0.9959
vn 0.2063 -0.2193 -0.9536
vn 0.0490 -0.2126 -0.9759
vn 0.0489 -0.2126 -0.9759
vn 0.1986 -0.4381 -0.8767
vn 0.0489 -0.2125 -0.9759
vn 0.0470 -0.4528 -0.8904
vn 0.1985 -0.4380 -0.8768
vn 0.1787 -0.6991 -0.6923
vn 0.0471 -0.4529 -0.8903
vn 0.0414 -0.7095 -0.7034
vn 0.2029 -0.0619 -0.9772
vn 0.4439 -0.0647 -0.8937
vn 0.4259 -0.2159 -0.8786
vn 0.4258 -0.2159 -0.8787
vn 0.4258 -0.2158 -0.8787
vn 0.4003 -0.4168 -0.8161
vn 0.2064 -0.2194 -0.9536
vn 0.4005 -0.4167 -0.8161
vn 0.1986 -0.4380 -0.8768
vn 0.3639 -0.6701 -0.6469
vn 0.1985 -0.4382 -0.8767
vn 0.3655 -0.6621 -0.6543
vn 0.1788 -0.6991 -0.6923
vn 0.4440 -0.0648 -0.8937
vn 0.5671 -0.0615 -0.8214
vn 0.5413 -0.1959 -0.8177
vn 0.4439 -0.0648 -0.8937
vn 0.5412 -0.1959 -0.8177
vn 0.5080 -0.3787 -0.7737
vn 0.5080 -0.3786 -0.7737
vn 0.4004 -0.4168 -0.8161
vn 0.4003 -0.4167 -0.8161
vn 0.5079 -0.3787 -0.7737
vn 0.4888 -0.6257 -0.6079
vn 0.4886 -0.6211 -0.6128
vn 0.3654 -0.6621 -0.6543
vn -0.0695 -0.0675 -0.9953
vn -0.0624 -0.2113 -0.9754
vn -0.2199 -0.2144 -0.9517
vn -0.0696 -0.0676 -0.9953
vn -0.2200 -0.2145 -0.9516
vn -0.2131 -0.0572 -0.9754
vn -0.2132 -0.0572 -0.9753
vn -0.2199 -0.2145 -0.9516
vn -0.4386 -0.2060 -0.8748
vn -0.2131 -0.0573 -0.9753
vn -0.4385 -0.2061 -0.8748
vn -0.4533 -0.0546 -0.8897
vn -0.4533 -0.0547 -0.8897
vn -0.6995 -0.1848 -0.6903
vn -0.4533 -0.0545 -0.8897
vn -0.0625 -0.2113 -0.9754
vn -0.0653 -0.4515 -0.8899
vn -0.2164 -0.4333 -0.8749
vn -0.0626 -0.2113 -0.9754
vn -0.2165 -0.4332 -0.8749
vn -0.2199 -0.2145 -0.9517
vn -0.2200 -0.2144 -0.9516
vn -0.4172 -0.4073 -0.8125
vn -0.4171 -0.4074 -0.8124
vn -0.4385 -0.2060 -0.8748
vn -0.4171 -0.4073 -0.8125
vn -0.6624 -0.3711 -0.6507
vn -0.0652 -0.4515 -0.8899
vn -0.0639 -0.7083 -0.7030
vn -0.2010 -0.6948 -0.6905
vn -0.2009 -0.6949 -0.6905
vn -0.2163 -0.4333 -0.8749
vn -0.3864 -0.6535 -0.6509
vn -0.3864 -0.6536 -0.6508
vn -0.4170 -0.4074 -0.8125
vn -0.4171 -0.4074 -0.8125
vn -0.3864 -0.6535 -0.6508
vn -0.5865 -0.5730 -0.5725
vn -0.0682 0.0610 -0.9958
vn -0.2118 0.0544 -0.9758
vn -0.2150 0.2117 -0.9534
vn -0.0681 0.0611 -0.9958
vn -0.2150 0.2118 -0.9534
vn -0.0578 0.2047 -0.9771
vn -0.0577 0.2048 -0.9771
vn -0.2066 0.4310 -0.8784
vn -0.0577 0.2047 -0.9771
vn -0.2066 0.4311 -0.8784
vn -0.0552 0.4456 -0.8935
vn -0.0551 0.4457 -0.8935
vn -0.2065 0.4310 -0.8784
vn -0.1852 0.6936 -0.6962
vn -0.0551 0.4456 -0.8935
vn -0.1851 0.6936 -0.6962
vn -0.0477 0.7039 -0.7087
vn -0.2117 0.0541 -0.9758
vn -0.4521 0.0577 -0.8901
vn -0.4338 0.2090 -0.8764
vn -0.2118 0.0541 -0.9758
vn -0.4338 0.2089 -0.8765
vn -0.4330 0.2107 -0.8764
vn -0.4078 0.4102 -0.8157
vn -0.4077 0.4102 -0.8158
vn -0.4077 0.4101 -0.8158
vn -0.3714 0.6569 -0.6562
vn -0.3715 0.6568 -0.6562
vn -0.7087 0.0578 -0.7031
vn -0.6952 0.1949 -0.6918
vn -0.4520 0.0577 -0.8901
vn -0.4338 0.2089 -0.8764
vn -0.4078 0.4101 -0.8158
vn -0.4078 0.4102 -0.8158
vn -0.6540 0.3808 -0.6537
vn -0.5734 0.5815 -0.5771
vn 0.0527 -0.9968 -0.0606
vn 0.0437 -0.9779 -0.2043
vn 0.2013 -0.9567 -0.2102
vn 0.0528 -0.9968 -0.0606
vn 0.2014 -0.9567 -0.2103
vn 0.1967 -0.9791 -0.0526
vn 0.1967 -0.9790 -0.0527
vn 0.2013 -0.9567 -0.2101
vn 0.4212 -0.8833 -0.2058
vn 0.1967 -0.9791 -0.0527
vn 0.4212 -0.8833 -0.2059
vn 0.4382 -0.8972 -0.0546
vn 0.4382 -0.8972 -0.0545
vn 0.4213 -0.8832 -0.2058
vn 0.5369 -0.8230 -0.1855
vn 0.5618 -0.8257 -0.0512
vn 0.0436 -0.9779 -0.2044
vn 0.0439 -0.8943 -0.4452
vn 0.1955 -0.8816 -0.4295
vn 0.0437 -0.9779 -0.2044
vn 0.1956 -0.8816 -0.4296
vn 0.2013 -0.9567 -0.2103
vn 0.1956 -0.8816 -0.4295
vn 0.3977 -0.8222 -0.4073
vn 0.2012 -0.9567 -0.2101
vn 0.3976 -0.8222 -0.4072
vn 0.4213 -0.8833 -0.2059
vn 0.5051 -0.7803 -0.3688
vn 0.5052 -0.7803 -0.3688
vn 0.5370 -0.8229 -0.1855
vn 0.0439 -0.8943 -0.4453
vn 0.0414 -0.7095 -0.7035
vn 0.1955 -0.8816 -0.4296
vn 0.1789 -0.6991 -0.6923
vn 0.3655 -0.6621 -0.6542
vn 0.3655 -0.6620 -0.6543
vn 0.4887 -0.6211 -0.6128
vn 0.5051 -0.7802 -0.3689
vn 0.0533 -0.9962 0.0682
vn 0.1972 -0.9786 0.0587
vn 0.2032 -0.9550 0.2160
vn 0.0532 -0.9963 0.0682
vn 0.0455 -0.9763 0.2117
vn 0.2033 -0.9550 0.2160
vn 0.1995 -0.8781 0.4349
vn 0.0456 -0.9763 0.2117
vn 0.1994 -0.8781 0.4349
vn 0.0480 -0.8907 0.4520
vn 0.0481 -0.8907 0.4520
vn 0.1851 -0.6936 0.6962
vn 0.0478 -0.7038 0.7087
vn 0.4388 -0.8967 0.0577
vn 0.4231 -0.8816 0.2091
vn 0.4232 -0.8816 0.2091
vn 0.2032 -0.9550 0.2161
vn 0.4013 -0.8189 0.4103
vn 0.2031 -0.9550 0.2161
vn 0.4014 -0.8189 0.4103
vn 0.1995 -0.8781 0.4348
vn 0.1994 -0.8782 0.4348
vn 0.3715 -0.6569 0.6562
vn 0.3715 -0.6568 0.6562
vn 0.1852 -0.6936 0.6962
vn 0.4387 -0.8968 0.0578
vn 0.5623 -0.8253 0.0524
vn 0.5386 -0.8215 0.1872
vn 0.4388 -0.8967 0.0578
vn 0.5387 -0.8214 0.1872
vn 0.5086 -0.7772 0.3706
vn 0.4232 -0.8816 0.2090
vn 0.5086 -0.7772 0.3705
vn 0.4014 -0.8189 0.4102
vn 0.4943 -0.6162 0.6132
vn 0.4942 -0.6161 0.6133
vn 0.3715 -0.6567 0.6563
vn -0.0753 -0.9948 0.0687
vn -0.0658 -0.9750 0.2123
vn -0.2230 -0.9501 0.2179
vn -0.2229 -0.9502 0.2180
vn -0.2188 -0.9739 0.0606
vn -0.2189 -0.9739 0.0607
vn -0.4413 -0.8717 0.2130
vn -0.4584 -0.8866 0.0619
vn -0.4585 -0.8866 0.0618
vn -0.4412 -0.8718 0.2129
vn -0.7012 -0.6856 0.1957
vn -0.4585 -0.8865 0.0618
vn -0.7139 -0.6978 0.0587
vn -0.0659 -0.9750 0.2123
vn -0.0642 -0.8895 0.4525
vn -0.2154 -0.8734 0.4367
vn -0.0657 -0.9750 0.2123
vn -0.2155 -0.8734 0.4366
vn -0.2230 -0.9501 0.2180
vn -0.2229 -0.9502 0.2179
vn -0.2155 -0.8735 0.4366
vn -0.4161 -0.8097 0.4139
vn -0.4162 -0.8096 0.4139
vn -0.4412 -0.8718 0.2130
vn -0.6609 -0.6462 0.3815
vn -0.7012 -0.6856 0.1958
vn -0.0643 -0.8895 0.4525
vn -0.0574 -0.7026 0.7092
vn -0.1946 -0.6893 0.6979
vn -0.0643 -0.8895 0.4524
vn -0.1945 -0.6892 0.6979
vn -0.1946 -0.6892 0.6979
vn -0.3804 -0.6483 0.6596
vn -0.3804 -0.6482 0.6596
vn -0.4161 -0.8096 0.4139
vn -0.5812 -0.5684 0.5823
vn -0.0758 -0.9953 -0.0600
vn -0.2194 -0.9743 -0.0508
vn -0.2249 -0.9519 -0.2082
vn -0.0760 -0.9953 -0.0600
vn -0.2248 -0.9519 -0.2083
vn -0.0677 -0.9767 -0.2038
vn -0.2194 -0.8769 -0.4277
vn -0.0678 -0.9767 -0.2038
vn -0.0684 -0.8930 -0.4448
vn -0.0684 -0.8931 -0.4447
vn -0.2194 -0.8768 -0.4278
vn -0.2008 -0.6948 -0.6906
vn -0.0684 -0.8930 -0.4447
vn -0.2193 -0.9743 -0.0508
vn -0.4591 -0.8870 -0.0505
vn -0.4431 -0.8734 -0.2020
vn -0.2249 -0.9519 -0.2083
vn -0.4431 -0.8734 -0.2019
vn -0.4198 -0.8129 -0.4037
vn -0.2193 -0.8769 -0.4277
vn -0.4199 -0.8129 -0.4036
vn -0.2194 -0.8769 -0.4276
vn -0.3863 -0.6536 -0.6508
vn -0.2009 -0.6948 -0.6905
vn -0.4590 -0.8870 -0.0505
vn -0.7029 -0.6871 -0.1840
vn -0.7029 -0.6870 -0.1839
vn -0.6643 -0.6492 -0.3703
vn -0.6643 -0.6493 -0.3704
vn 0.0681 -0.0611 0.9958
vn 0.0577 -0.2047 0.9771
vn 0.2150 -0.2116 0.9534
vn 0.0681 -0.0610 0.9958
vn 0.2150 -0.2117 0.9534
vn 0.2118 -0.0541 0.9758
vn 0.2118 -0.0542 0.9758
vn 0.2149 -0.2117 0.9534
vn 0.4338 -0.2090 0.8764
vn 0.4338 -0.2089 0.8765
vn 0.4520 -0.0577 0.8901
vn 0.5486 -0.1894 0.8144
vn 0.4520 -0.0578 0.8901
vn 0.5745 -0.0550 0.8166
vn 0.0551 -0.4456 0.8935
vn 0.2066 -0.4310 0.8784
vn 0.2151 -0.2117 0.9534
vn 0.2151 -0.2116 0.9534
vn 0.2065 -0.4310 0.8784
vn 0.4079 -0.4100 0.8158
vn 0.4078 -0.4102 0.8158
vn 0.5150 -0.3724 0.7721
vn 0.4338 -0.2088 0.8765
vn 0.5487 -0.1894 0.8143
vn 0.0550 -0.4457 0.8935
vn 0.1852 -0.6935 0.6962
vn 0.1851 -0.6937 0.6961
vn 0.3714 -0.6568 0.6562
vn 0.2066 -0.4309 0.8784
vn 0.4078 -0.4101 0.8157
vn 0.4078 -0.4101 0.8158
vn 0.4079 -0.4101 0.8158
vn 0.4943 -0.6161 0.6132
vn 0.0695 0.0676 0.9953
vn 0.2131 0.0572 0.9754
vn 0.2198 0.2146 0.9517
vn 0.2198 0.2145 0.9517
vn 0.0624 0.2113 0.9754
vn 0.0626 0.2114 0.9754
vn 0.2199 0.2144 0.9517
vn 0.2164 0.4332 0.8749
vn 0.0625 0.2113 0.9754
vn 0.2163 0.4333 0.8749
vn 0.0653 0.4515 0.8899
vn 0.0653 0.4514 0.8899
vn 0.2164 0.4334 0.8749
vn 0.2010 0.6947 0.6906
vn 0.0654 0.4515 0.8899
vn 0.2009 0.6948 0.6906
vn 0.0639 0.7083 0.7030
vn 0.4533 0.0545 0.8897
vn 0.4385 0.2060 0.8748
vn 0.4385 0.2062 0.8747
vn 0.2199 0.2145 0.9517
vn 0.4385 0.2061 0.8748
vn 0.4171 0.4074 0.8124
vn 0.2199 0.2145 0.9516
vn 0.4171 0.4073 0.8125
vn 0.2164 0.4333 0.8749
vn 0.4171 0.4075 0.8124
vn 0.3864 0.6535 0.6509
vn 0.2164 0.4334 0.8748
vn 0.3864 0.6535 0.6508
vn 0.2010 0.6948 0.6906
vn 0.4533 0.0546 0.8897
vn 0.5757 0.0485 0.8163
vn 0.5529 0.1834 0.8128
vn 0.4533 0.0547 0.8897
vn 0.4386 0.2060 0.8748
vn 0.5234 0.3669 0.7691
vn 0.5234 0.3670 0.7691
vn 0.5083 0.6097 0.6082
vn 0.4171 0.4074 0.8125
vn 0.5081 0.6097 0.6083
vn -0.0590 0.0690 0.9959
vn -0.0490 0.2125 0.9759
vn -0.2064 0.2194 0.9536
vn -0.0592 0.0690 0.9959
vn -0.2063 0.2193 0.9536
vn -0.2030 0.0620 0.9772
vn -0.2029 0.0619 0.9772
vn -0.4259 0.2159 0.8786
vn -0.2029 0.0620 0.9772
vn -0.4259 0.2159 0.8787
vn -0.4439 0.0648 0.8937
vn -0.4439 0.0648 0.8938
vn -0.4258 0.2159 0.8787
vn -0.6889 0.2005 0.6965
vn -0.4439 0.0649 0.8937
vn -0.7023 0.0634 0.7090
vn -0.0488 0.2125 0.9759
vn -0.0470 0.4528 0.8903
vn -0.1987 0.4380 0.8767
vn -0.0489 0.2125 0.9759
vn -0.2064 0.2193 0.9536
vn -0.2063 0.2192 0.9536
vn -0.1986 0.4380 0.8768
vn -0.4004 0.4166 0.8161
vn -0.4004 0.4167 0.8161
vn -0.6480 0.3861 0.6566
vn -0.0469 0.4528 0.8904
vn -0.0414 0.7095 0.7035
vn -0.1770 0.7026 0.6892
vn -0.0471 0.4528 0.8904
vn -0.1788 0.6992 0.6922
vn -0.1986 0.4380 0.8767
vn -0.1986 0.4381 0.8767
vn -0.1789 0.6992 0.6922
vn -0.3657 0.6612 0.6550
vn -0.1985 0.4381 0.8767
vn -0.3655 0.6621 0.6542
vn -0.4003 0.4167 0.8161
vn -0.3654 0.6622 0.6542
vn -0.5683 0.5832 0.5805
vn -0.4005 0.4167 0.8161
vn -0.5681 0.5862 0.5776
vn -0.6480 0.3860 0.6565
vn -0.0605 -0.0596 0.9964
vn -0.2043 -0.0494 0.9777
vn -0.2112 -0.2068 0.9553
vn -0.0536 -0.2034 0.9776
vn -0.0537 -0.2035 0.9776
vn -0.2084 -0.4264 0.8802
vn -0.0536 -0.2035 0.9776
vn -0.2084 -0.4263 0.8803
vn -0.0573 -0.4443 0.8940
vn -0.0572 -0.4444 0.8940
vn -0.0575 -0.7026 0.7093
vn -0.4452 -0.0475 0.8942
vn -0.4306 -0.1990 0.8803
vn -0.4305 -0.1991 0.8804
vn -0.2112 -0.2069 0.9553
vn -0.4305 -0.1990 0.8804
vn -0.4096 -0.4009 0.8195
vn -0.4096 -0.4008 0.8195
vn -0.2083 -0.4263 0.8802
vn -0.4097 -0.4009 0.8194
vn -0.2084 -0.4263 0.8802
vn -0.4452 -0.0474 0.8942
vn -0.7035 -0.0417 0.7095
vn -0.6932 -0.1791 0.6982
vn -0.6932 -0.1792 0.6981
vn -0.6565 -0.3659 0.6596
vn -0.4097 -0.4008 0.8195
vn -0.5813 -0.5684 0.5823
vn 0.0759 0.9953 0.0600
vn 0.0681 0.9767 0.2037
vn 0.2249 0.9519 0.2082
vn 0.2250 0.9519 0.2082
vn 0.2193 0.9743 0.0508
vn 0.2194 0.9743 0.0508
vn 0.2249 0.9519 0.2083
vn 0.4431 0.8734 0.2020
vn 0.4432 0.8734 0.2020
vn 0.4590 0.8870 0.0505
vn 0.5572 0.8105 0.1806
vn 0.5571 0.8106 0.1806
vn 0.5809 0.8127 0.0459
vn 0.0676 0.9767 0.2037
vn 0.0683 0.8931 0.4447
vn 0.2195 0.8769 0.4276
vn 0.0677 0.9767 0.2038
vn 0.2193 0.8769 0.4277
vn 0.2250 0.9518 0.2083
vn 0.2212 0.8768 0.4270
vn 0.4199 0.8129 0.4036
vn 0.4198 0.8129 0.4036
vn 0.5261 0.7685 0.3641
vn 0.5260 0.7685 0.3642
vn 0.0683 0.8930 0.4448
vn 0.2008 0.6948 0.6906
vn 0.0684 0.8930 0.4448
vn 0.3863 0.6535 0.6509
vn 0.2195 0.8769 0.4277
vn 0.4199 0.8129 0.4035
vn 0.5082 0.6097 0.6082
vn 0.5261 0.7685 0.3642
vn 0.0753 0.9948 -0.0687
vn 0.2188 0.9739 -0.0605
vn 0.2230 0.9501 -0.2180
vn 0.0753 0.9948 -0.0686
vn 0.2229 0.9501 -0.2180
vn 0.0658 0.9750 -0.2123
vn 0.0691 0.9750 -0.2113
vn 0.2155 0.8734 -0.4367
vn 0.0643 0.8895 -0.4525
vn 0.0644 0.8895 -0.4524
vn 0.2154 0.8734 -0.4367
vn 0.1946 0.6893 -0.6978
vn 0.0574 0.7027 -0.7092
vn 0.2188 0.9739 -0.0606
vn 0.4585 0.8865 -0.0618
vn 0.4412 0.8718 -0.2130
vn 0.4411 0.8718 -0.2130
vn 0.2229 0.9502 -0.2179
vn 0.4161 0.8096 -0.4139
vn 0.2229 0.9502 -0.2180
vn 0.2155 0.8734 -0.4366
vn 0.4585 0.8866 -0.0617
vn 0.5804 0.8123 -0.0577
vn 0.5555 0.8090 -0.1921
vn 0.4586 0.8865 -0.0618
vn 0.5556 0.8089 -0.1921
vn 0.4413 0.8717 -0.2129
vn 0.4412 0.8718 -0.2129
vn 0.5556 0.8090 -0.1921
vn 0.5228 0.7655 -0.3752
vn 0.5228 0.7655 -0.3751
vn 0.4162 0.8096 -0.4139
vn 0.4161 0.8096 -0.4140
vn 0.5026 0.6048 -0.6178
vn -0.0532 0.9963 -0.0682
vn -0.0455 0.9763 -0.2117
vn -0.2033 0.9550 -0.2160
vn -0.0533 0.9963 -0.0681
vn -0.1972 0.9786 -0.0587
vn -0.2032 0.9550 -0.2160
vn -0.4232 0.8816 -0.2091
vn -0.1971 0.9786 -0.0587
vn -0.4387 0.8968 -0.0578
vn -0.4231 0.8816 -0.2090
vn -0.6872 0.7013 -0.1896
vn -0.4388 0.8967 -0.0578
vn -0.6871 0.7014 -0.1895
vn -0.0456 0.9763 -0.2117
vn -0.0480 0.8907 -0.4520
vn -0.1995 0.8781 -0.4348
vn -0.1995 0.8782 -0.4348
vn -0.4014 0.8189 -0.4103
vn -0.4014 0.8189 -0.4102
vn -0.4232 0.8816 -0.2090
vn -0.6577 0.6539 -0.3740
vn -0.4231 0.8816 -0.2091
vn -0.0478 0.7038 -0.7088
vn -0.1851 0.6935 -0.6963
vn -0.0481 0.8907 -0.4520
vn -0.1852 0.6935 -0.6962
vn -0.1995 0.8781 -0.4349
vn -0.4013 0.8189 -0.4103
vn -0.4013 0.8189 -0.4102
vn -0.3714 0.6568 -0.6562
vn -0.5763 0.5785 -0.5772
vn -0.6494 0.6612 -0.3756
vn -0.0527 0.9968 0.0606
vn -0.1967 0.9790 0.0526
vn -0.2013 0.9567 0.2102
vn -0.0528 0.9968 0.0606
vn -0.0436 0.9779 0.2043
vn -0.0437 0.9779 0.2043
vn -0.1955 0.8816 0.4296
vn -0.0437 0.9779 0.2044
vn -0.1956 0.8816 0.4296
vn -0.0440 0.8943 0.4453
vn -0.0439 0.8944 0.4452
vn -0.0439 0.8943 0.4452
vn -0.1788 0.6992 0.6923
vn -0.1966 0.9791 0.0527
vn -0.4382 0.8972 0.0545
vn -0.4212 0.8833 0.2059
vn -0.1967 0.9790 0.0527
vn -0.4213 0.8833 0.2059
vn -0.2012 0.9567 0.2102
vn -0.3977 0.8221 0.4074
vn -0.2012 0.9567 0.2103
vn -0.3976 0.8222 0.4073
vn -0.1956 0.8816 0.4295
vn -0.3655 0.6621 0.6543
vn -0.4383 0.8972 0.0545
vn -0.6978 0.7143 0.0530
vn -0.6855 0.7028 0.1901
vn -0.4383 0.8972 0.0546
vn -0.6855 0.7028 0.1903
vn -0.4213 0.8832 0.2059
vn -0.6461 0.6641 0.3763
vn -0.9954 0.0753 -0.0601
vn -0.9780 -0.0454 -0.2035
vn -0.9768 0.0660 -0.2038
vn -0.8933 0.0646 -0.4448
vn -0.9780 -0.0454 -0.2034
vn -0.8946 -0.0478 -0.4444
vn -0.8932 0.0645 -0.4449
vn -0.7099 -0.0473 -0.7027
vn -0.9962 -0.0526 0.0690
vn -0.9791 -0.1971 -0.0504
vn -0.9786 -0.1967 0.0609
vn -0.8967 -0.4383 0.0620
vn -0.8967 -0.4382 0.0620
vn -0.7144 -0.6982 -0.0466
vn -0.7143 -0.6983 -0.0466
vn -0.9762 -0.0437 0.2127
vn -0.9948 0.0759 0.0684
vn -0.9749 0.0675 0.2123
vn -0.8904 -0.0442 0.4529
vn -0.9749 0.0675 0.2122
vn -0.7035 -0.0417 0.7094
vn -0.7035 -0.0418 0.7095
vn -0.9739 0.2194 0.0591
vn -0.9953 0.0754 -0.0601
vn -0.8871 0.4585 -0.0538
vn -0.6979 0.7142 0.0529
vn 0.0590 -0.0690 -0.9959
vn 0.2030 -0.0619 -0.9772
vn 0.2042 0.0494 -0.9777
vn 0.4452 0.0476 -0.8942
vn 0.4453 0.0475 -0.8941
vn 0.5682 0.0421 -0.8218
vn 0.5671 -0.0616 -0.8214
vn -0.0695 -0.0676 -0.9953
vn -0.0624 -0.2112 -0.9754
vn -0.0625 -0.2114 -0.9754
vn 0.0488 -0.2126 -0.9759
vn 0.0470 -0.4529 -0.8903
vn -0.0653 -0.4516 -0.8898
vn 0.0413 -0.7094 -0.7036
vn 0.0415 -0.7094 -0.7036
vn -0.0639 -0.7084 -0.7029
vn -0.0681 0.0610 -0.9958
vn -0.2130 -0.0572 -0.9754
vn -0.2119 0.0541 -0.9758
vn -0.2119 0.0542 -0.9758
vn -0.4532 -0.0546 -0.8897
vn -0.4520 0.0576 -0.8902
vn -0.4520 0.0577 -0.8902
vn -0.4534 -0.0546 -0.8896
vn -0.7086 0.0577 -0.7032
vn -0.0578 0.2048 -0.9771
vn 0.0537 0.2035 -0.9776
vn 0.0573 0.4443 -0.8940
vn 0.0575 0.7027 -0.7092
vn 0.0533 -0.9963 0.0681
vn 0.1966 -0.9791 -0.0527
vn 0.0532 -0.9963 0.0681
vn 0.1966 -0.9791 -0.0526
vn 0.1971 -0.9786 0.0587
vn 0.4387 -0.8968 0.0577
vn 0.4383 -0.8972 -0.0546
vn 0.5618 -0.8257 -0.0510
vn 0.5623 -0.8252 0.0525
vn -0.0752 -0.9948 0.0686
vn 0.0455 -0.9763 0.2118
vn -0.0754 -0.9948 0.0686
vn -0.0658 -0.9750 0.2122
vn 0.0481 -0.8907 0.4521
vn 0.0478 -0.7039 0.7087
vn -0.0643 -0.8894 0.4525
vn 0.0479 -0.7038 0.7088
vn -0.0574 -0.7027 0.7092
vn -0.0759 -0.9953 -0.0600
vn -0.0753 -0.9948 0.0686
vn -0.2189 -0.9739 0.0606
vn -0.2188 -0.9739 0.0605
vn -0.4584 -0.8866 0.0618
vn -0.2194 -0.9743 -0.0507
vn -0.7138 -0.6979 0.0587
vn -0.7144 -0.6982 -0.0465
vn 0.0526 -0.9968 -0.0605
vn -0.0758 -0.9953 -0.0599
vn 0.0527 -0.9968 -0.0605
vn 0.0436 -0.9779 -0.2043
vn -0.0677 -0.9767 -0.2039
vn -0.0683 -0.8931 -0.4447
vn 0.0440 -0.8943 -0.4453
vn 0.0695 0.0675 0.9953
vn 0.2130 0.0572 0.9754
vn 0.2119 -0.0542 0.9758
vn 0.4520 -0.0577 0.8902
vn 0.4520 -0.0578 0.8902
vn 0.4534 0.0545 0.8897
vn 0.4534 0.0546 0.8897
vn 0.5744 -0.0551 0.8167
vn 0.5745 -0.0550 0.8167
vn 0.5757 0.0486 0.8162
vn -0.0591 0.0691 0.9959
vn 0.0625 0.2114 0.9754
vn -0.0591 0.0690 0.9959
vn 0.0625 0.2112 0.9754
vn 0.0653 0.4516 0.8899
vn -0.0488 0.2126 0.9759
vn -0.0470 0.4528 0.8904
vn 0.0652 0.4515 0.8899
vn 0.0638 0.7083 0.7031
vn -0.0413 0.7095 0.7035
vn -0.2042 -0.0493 0.9777
vn -0.2043 -0.0493 0.9777
vn -0.2042 -0.0494 0.9777
vn -0.4452 -0.0476 0.8942
vn -0.4440 0.0649 0.8937
vn -0.7023 0.0635 0.7091
vn 0.0578 -0.2046 0.9771
vn 0.0577 -0.2048 0.9771
vn -0.0537 -0.2034 0.9776
vn -0.0573 -0.4444 0.8940
vn 0.0551 -0.4457 0.8935
vn -0.0574 -0.7026 0.7093
vn 0.0477 -0.7039 0.7087
vn 0.0752 0.9948 -0.0686
vn 0.4584 0.8866 -0.0618
vn 0.4584 0.8866 -0.0617
vn 0.5808 0.8128 0.0459
vn -0.0534 0.9963 -0.0681
vn 0.0659 0.9750 -0.2122
vn -0.0532 0.9963 -0.0681
vn -0.0455 0.9763 -0.2118
vn -0.0454 0.9763 -0.2117
vn 0.0659 0.9750 -0.2123
vn 0.0642 0.8894 -0.4525
vn 0.0643 0.8894 -0.4525
vn 0.0643 0.8894 -0.4526
vn -0.0526 0.9968 0.0606
vn -0.0527 0.9968 0.0605
vn -0.1966 0.9791 0.0526
vn -0.1972 0.9786 -0.0586
vn 0.0758 0.9953 0.0599
vn 0.0759 0.9953 0.0599
vn 0.0677 0.9767 0.2037
vn -0.0440 0.8943 0.4452
vn 0.0684 0.8931 0.4447
vn 0.0638 0.7083 0.7030
vt 0.002000 0.998000
vt 0.001390 0.998000
vt 0.001420 0.998580
vt 0.002000 0.998610
vt 0.001460 0.999070
vt 0.002000 0.999110
vt 0.001530 0.999470
vt 0.002000 0.999500
vt 0.000890 0.998000
vt 0.000930 0.998540
vt 0.001000 0.999000
vt 0.001110 0.999390
vt 0.000500 0.998000
vt 0.000530 0.998470
vt 0.000610 0.998890
vt 0.000750 0.999250
vt 0.998000 0.998000
vt 0.998000 0.998610
vt 0.998580 0.998580
vt 0.998610 0.998000
vt 0.999070 0.998540
vt 0.999110 0.998000
vt 0.999470 0.998470
vt 0.999500 0.998000
vt 0.998000 0.999110
vt 0.998540 0.999070
vt 0.999000 0.999000
vt 0.999390 0.998890
vt 0.998000 0.999500
vt 0.998470 0.999470
vt 0.998890 0.999390
vt 0.999250 0.999250
vt 0.998000 0.002000
vt 0.998610 0.002000
vt 0.998580 0.001420
vt 0.998000 0.001390
vt 0.998540 0.000930
vt 0.998000 0.000890
vt 0.998470 0.000530
vt 0.998000 0.000500
vt 0.999110 0.002000
vt 0.999070 0.001460
vt 0.999000 0.001000
vt 0.998890 0.000610
vt 0.999500 0.002000
vt 0.999470 0.001530
vt 0.999390 0.001110
vt 0.999250 0.000750
vt 0.002000 0.002000
vt 0.002000 0.001390
vt 0.001420 0.001420
vt 0.001390 0.002000
vt 0.000930 0.001460
vt 0.000890 0.002000
vt 0.000530 0.001530
vt 0.000500 0.002000
vt 0.002000 0.000890
vt 0.001460 0.000930
vt 0.001000 0.001000
vt 0.000610 0.001110
vt 0.002000 0.000500
vt 0.001530 0.000530
vt 0.001110 0.000610
vt 0.000750 0.000750
vt 0.002000 1.017000
vt 0.001390 1.017000
vt 0.001420 1.017590
vt 0.002000 1.017610
vt 0.001460 1.018080
vt 0.002000 1.018110
vt 0.001530 1.018480
vt 0.002000 1.018500
vt 0.000890 1.017000
vt 0.000930 1.017540
vt 0.001000 1.018000
vt 0.001110 1.018390
vt 0.000500 1.017000
vt 0.000530 1.017480
vt 0.000610 1.017890
vt 0.000750 1.018250
vt 0.998000 1.017000
vt 0.998000 1.017610
vt 0.998580 1.017590
vt 0.998610 1.017000
vt 0.999070 1.017540
vt 0.999110 1.017000
vt 0.999470 1.017480
vt 0.999500 1.017000
vt 0.998000 1.018110
vt 0.998540 1.018080
vt 0.999000 1.018000
vt 0.999390 1.017890
vt 0.998000 1.018500
vt 0.998470 1.018480
vt 0.998890 1.018390
vt 0.999250 1.018250
vt 0.998000 1.001000
vt 0.998610 1.001000
vt 0.998580 1.000420
vt 0.998000 1.000390
vt 0.998540 0.999930
vt 0.998000 0.999890
vt 0.998470 0.999530
vt 0.999110 1.001000
vt 0.999070 1.000470
vt 0.999000 1.000000
vt 0.998890 0.999610
vt 0.999500 1.001000
vt 0.999470 1.000530
vt 0.999390 1.000110
vt 0.999250 0.999750
vt 0.002000 1.001000
vt 0.002000 1.000390
vt 0.001420 1.000420
vt 0.001390 1.001000
vt 0.000930 1.000470
vt 0.000890 1.001000
vt 0.000530 1.000530
vt 0.000500 1.001000
vt 0.002000 0.999890
vt 0.001460 0.999930
vt 0.001000 1.000000
vt 0.000610 1.000110
vt 0.001530 0.999530
vt 0.001110 0.999610
vt 0.000750 0.999750
vt 1.017000 0.998000
vt 1.017000 0.998610
vt 1.017590 0.998580
vt 1.017610 0.998000
vt 1.018080 0.998540
vt 1.018110 0.998000
vt 1.018470 0.998470
vt 1.018500 0.998000
vt 1.017000 0.999110
vt 1.017540 0.999070
vt 1.018000 0.999000
vt 1.018390 0.998890
vt 1.017000 0.999500
vt 1.017470 0.999470
vt 1.017890 0.999390
vt 1.018250 0.999250
vt 1.017000 0.002000
vt 1.017610 0.002000
vt 1.017580 0.001420
vt 1.017000 0.001390
vt 1.017540 0.000930
vt 1.017000 0.000890
vt 1.017470 0.000530
vt 1.017000 0.000500
vt 1.018110 0.002000
vt 1.018080 0.001460
vt 1.018000 0.001000
vt 1.017890 0.000610
vt 1.018500 0.002000
vt 1.018470 0.001530
vt 1.018390 0.001110
vt 1.018250 0.000750
vt 1.001000 0.002000
vt 1.001000 0.001390
vt 1.000420 0.001420
vt 1.000390 0.002000
vt 0.999930 0.001460
vt 0.999890 0.002000
vt 0.999530 0.001530
vt 1.001000 0.000890
vt 1.000460 0.000930
vt 1.000000 0.001000
vt 0.999610 0.001110
vt 1.001000 0.000500
vt 1.000530 0.000530
vt 1.000110 0.000610
vt 0.999750 0.000750
vt 1.001000 0.998000
vt 1.000390 0.998000
vt 1.000420 0.998580
vt 1.001000 0.998610
vt 1.000460 0.999070
vt 1.001000 0.999110
vt 1.000530 0.999470
vt 1.001000 0.999500
vt 0.999890 0.998000
vt 0.999930 0.998540
vt 1.000000 0.999000
vt 1.000110 0.999390
vt 0.999530 0.998470
vt 0.999610 0.998890
vt 0.999750 0.999250
vt 0.998000 -0.017000
vt 0.998610 -0.017000
vt 0.998590 -0.017590
vt 0.998000 -0.017620
vt 0.998540 -0.018080
vt 0.998000 -0.018120
vt 0.998480 -0.018480
vt 0.998000 -0.018500
vt 0.999110 -0.017000
vt 0.999080 -0.017540
vt 0.999000 -0.018000
vt 0.998890 -0.018390
vt 0.999500 -0.017000
vt 0.999480 -0.017480
vt 0.999390 -0.017890
vt 0.999250 -0.018250
vt 0.002000 -0.017000
vt 0.002000 -0.017610
vt 0.001420 -0.017590
vt 0.001390 -0.017000
vt 0.000930 -0.017540
vt 0.000890 -0.017000
vt 0.000530 -0.017480
vt 0.000500 -0.017000
vt 0.002000 -0.018120
vt 0.001470 -0.018080
vt 0.001000 -0.018000
vt 0.000610 -0.017890
vt 0.002000 -0.018500
vt 0.001530 -0.018480
vt 0.001110 -0.018390
vt 0.000750 -0.018250
vt 0.002000 -0.001000
vt 0.001390 -0.001000
vt 0.001420 -0.000420
vt 0.002000 -0.000390
vt 0.001470 0.000070
vt 0.002000 0.000110
vt 0.001530 0.000470
vt 0.000890 -0.001000
vt 0.000930 -0.000470
vt 0.001000 -0.000000
vt 0.001110 0.000380
vt 0.000500 -0.001000
vt 0.000530 -0.000530
vt 0.000610 -0.000120
vt 0.000750 0.000250
vt 0.998000 -0.001000
vt 0.998000 -0.000390
vt 0.998590 -0.000420
vt 0.998610 -0.001000
vt 0.999080 -0.000470
vt 0.999110 -0.001000
vt 0.999480 -0.000530
vt 0.999500 -0.001000
vt 0.998000 0.000110
vt 0.998540 0.000070
vt 0.999000 -0.000000
vt 0.999390 -0.000120
vt 0.998480 0.000470
vt 0.998890 0.000380
vt 0.999250 0.000250
vt -0.017000 0.002000
vt -0.017000 0.001390
vt -0.017580 0.001420
vt -0.017610 0.002000
vt -0.018070 0.001460
vt -0.018110 0.002000
vt -0.018470 0.001530
vt -0.018500 0.002000
vt -0.017000 0.000890
vt -0.017540 0.000930
vt -0.018000 0.001000
vt -0.018390 0.001110
vt -0.017000 0.000500
vt -0.017470 0.000530
vt -0.017890 0.000610
vt -0.018250 0.000750
vt -0.017000 0.998000
vt -0.017610 0.998000
vt -0.017580 0.998580
vt -0.017000 0.998610
vt -0.017540 0.999070
vt -0.017000 0.999110
vt -0.017470 0.999470
vt -0.017000 0.999500
vt -0.018110 0.998000
vt -0.018070 0.998540
vt -0.018000 0.999000
vt -0.017890 0.999390
vt -0.018500 0.998000
vt -0.018470 0.998470
vt -0.018390 0.998890
vt -0.018250 0.999250
vt -0.001000 0.998000
vt -0.001000 0.998610
vt -0.000420 0.998580
vt -0.000390 0.998000
vt 0.000080 0.998540
vt 0.000110 0.998000
vt 0.000470 0.998470
vt -0.001000 0.999110
vt -0.000460 0.999070
vt 0.000000 0.999000
vt 0.000390 0.998890
vt -0.001000 0.999500
vt -0.000530 0.999470
vt -0.000110 0.999390
vt 0.000250 0.999250
vt -0.001000 0.002000
vt -0.000390 0.002000
vt -0.000420 0.001420
vt -0.001000 0.001390
vt -0.000460 0.000930
vt -0.001000 0.000890
vt -0.000530 0.000530
vt -0.001000 0.000500
vt 0.000110 0.002000
vt 0.000080 0.001460
vt 0.000000 0.001000
vt -0.000110 0.000610
vt 0.000470 0.001530
vt 0.000390 0.001110
vt 0.000250 0.000750
s 0
usemtl mat0
f 1/1/1 2/2/2 3/3/3
f 1/1/1 3/3/4 4/4/5
f 4/4/6 3/3/4 5/5/7
f 4/4/8 5/5/7 6/6/9
f 6/6/10 5/5/7 7/7/11
f 6/6/9 7/7/12 8/8/13
f 2/2/14 9/9/15 10/10/16
f 2/2/17 10/10/18 3/3/4
f 3/3/19 10/10/20 11/11/21
f 3/3/3 11/11/22 5/5/23
f 5/5/24 11/11/21 12/12/25
f 5/5/7 12/12/26 7/7/27
f 9/9/28 13/13/29 14/14/30
f 9/9/31 14/14/32 10/10/16
f 10/10/33 14/14/34 15/15/35
f 10/10/36 15/15/37 11/11/21
f 11/11/38 15/15/35 16/16/39
f 11/11/21 16/16/40 12/12/25
f 17/17/41 18/18/42 19/19/43
f 17/17/44 19/19/45 20/20/46
f 20/20/46 19/19/45 21/21/47
f 20/20/48 21/21/49 22/22/50
f 22/22/51 21/21/52 23/23/53
f 22/22/51 23/23/53 24/24/54
f 18/18/55 25/25/56 26/26/57
f 18/18/55 26/26/57 19/19/45
f 19/19/45 26/26/57 27/27/58
f 19/19/45 27/27/58 21/21/52
f 21/21/49 27/27/59 28/28/60
f 21/21/47 28/28/61 23/23/62
f 25/25/63 29/29/64 30/30/65
f 25/25/66 30/30/67 26/26/68
f 26/26/69 30/30/70 31/31/71
f 26/26/68 31/31/72 27/27/73
f 27/27/73 31/31/74 32/32/75
f 27/27/73 32/32/76 28/28/77
f 33/33/78 34/34/79 35/35/80
f 33/33/78 35/35/80 36/36/81
f 36/36/82 35/35/83 37/37/84
f 36/36/82 37/37/85 38/38/86
f 38/38/86 37/37/84 39/39/87
f 38/38/88 39/39/87 40/40/89
f 34/34/90 41/41/91 42/42/92
f 34/34/90 42/42/92 35/35/83
f 35/35/80 42/42/93 43/43/94
f 35/35/83 43/43/94 37/37/84
f 37/37/95 43/43/94 44/44/96
f 37/37/84 44/44/96 39/39/87
f 41/41/97 45/45/98 46/46/99
f 41/41/91 46/46/99 42/42/100
f 42/42/93 46/46/101 47/47/102
f 42/42/103 47/47/102 43/43/94
f 43/43/94 47/47/104 48/48/105
f 43/43/94 48/48/105 44/44/106
f 49/49/107 50/50/108 51/51/109
f 49/49/107 51/51/110 52/52/111
f 52/52/112 51/51/109 53/53/113
f 52/52/114 53/53/115 54/54/116
f 54/54/116 53/53/117 55/55/118
f 54/54/119 55/55/118 56/56/120
f 50/50/121 57/57/122 58/58/123
f 50/50/124 58/58/123 51/51/125
f 51/51/125 58/58/126 59/59/127
f 51/51/128 59/59/127 53/53/129
f 53/53/117 59/59/127 60/60/130
f 53/53/131 60/60/130 55/55/132
f 57/57/133 61/61/134 62/62/135
f 57/57/133 62/62/136 58/58/137
f 58/58/123 62/62/135 63/63/138
f 58/58/123 63/63/139 59/59/140
f 59/59/140 63/63/141 64/64/142
f 59/59/143 64/64/142 60/60/144
f 65/65/145 66/66/146 67/67/147
f 65/65/148 67/67/149 68/68/150
f 68/68/151 67/67/147 69/69/152
f 68/68/153 69/69/154 70/70/155
f 70/70/155 69/69/152 71/71/156
f 70/70/155 71/71/157 72/72/158
f 66/66/159 73/73/160 74/74/161
f 66/66/162 74/74/163 67/67/164
f 67/67/164 74/74/161 75/75/165
f 67/67/164 75/75/165 69/69/152
f 69/69/166 75/75/167 76/76/168
f 69/69/154 76/76/168 71/71/169
f 73/73/160 77/77/170 78/78/171
f 73/73/160 78/78/172 74/74/173
f 74/74/163 78/78/174 79/79/175
f 74/74/173 79/79/175 75/75/176
f 75/75/176 79/79/177 80/80/178
f 75/75/176 80/80/178 76/76/179
f 81/81/180 82/82/181 83/83/182
f 81/81/183 83/83/184 84/84/185
f 84/84/186 83/83/184 85/85/187
f 84/84/188 85/85/187 86/86/189
f 86/86/189 85/85/190 87/87/191
f 86/86/192 87/87/191 88/88/193
f 82/82/194 89/89/195 90/90/196
f 82/82/181 90/90/197 83/83/184
f 83/83/184 90/90/198 91/91/199
f 83/83/200 91/91/201 85/85/202
f 85/85/187 91/91/201 92/92/203
f 85/85/204 92/92/205 87/87/206
f 89/89/207 93/93/208 94/94/209
f 89/89/210 94/94/209 90/90/197
f 90/90/196 94/94/211 95/95/212
f 90/90/196 95/95/213 91/91/214
f 91/91/215 95/95/216 96/96/217
f 91/91/215 96/96/218 92/92/219
f 97/97/220 98/98/221 99/99/222
f 97/97/223 99/99/224 100/100/225
f 100/100/226 99/99/227 101/101/228
f 100/100/229 101/101/230 102/102/231
f 102/102/232 101/101/230 103/103/233
f 102/102/234 103/103/67 104/29/64
f 98/98/235 105/104/236 106/105/237
f 98/98/238 106/105/239 99/99/240
f 99/99/241 106/105/237 107/106/242
f 99/99/224 107/106/243 101/101/244
f 101/101/244 107/106/245 108/107/246
f 101/101/244 108/107/72 103/103/233
f 105/104/247 109/108/248 110/109/249
f 105/104/236 110/109/250 106/105/251
f 106/105/237 110/109/249 111/110/252
f 106/105/237 111/110/253 107/106/254
f 107/106/255 111/110/256 112/111/76
f 107/106/245 112/111/257 108/107/246
f 113/112/258 114/113/259 115/114/260
f 113/112/261 115/114/262 116/115/263
f 116/115/264 115/114/260 117/116/265
f 116/115/266 117/116/267 118/117/268
f 118/117/269 117/116/270 119/118/271
f 118/117/272 119/118/273 120/119/274
f 114/113/275 121/120/276 122/121/277
f 114/113/278 122/121/279 115/114/260
f 115/114/262 122/121/280 123/122/281
f 115/114/262 123/122/282 117/116/265
f 117/116/267 123/122/283 124/123/284
f 117/116/265 124/123/285 119/118/271
f 121/120/276 125/8/286 126/124/287
f 121/120/288 126/124/287 122/121/279
f 122/121/279 126/124/27 127/125/25
f 122/121/289 127/125/25 123/122/290
f 123/122/291 127/125/292 128/126/293
f 123/122/290 128/126/40 124/123/285
f 129/127/294 130/128/295 131/129/296
f 129/127/297 131/129/298 132/130/299
f 132/130/300 131/129/301 133/131/302
f 132/130/303 133/131/304 134/132/305
f 134/132/306 133/131/307 135/133/308
f 134/132/305 135/133/308 136/134/309
f 130/128/310 137/135/311 138/136/312
f 130/128/313 138/136/314 131/129/296
f 131/129/315 138/136/316 139/137/317
f 131/129/318 139/137/319 133/131/320
f 133/131/302 139/137/317 140/138/321
f 133/131/320 140/138/322 135/133/323
f 137/135/324 141/139/325 142/140/206
f 137/135/311 142/140/206 138/136/326
f 138/136/312 142/140/327 143/141/328
f 138/136/314 143/141/205 139/137/317
f 139/137/317 143/141/329 144/142/330
f 139/137/319 144/142/218 140/138/331
f 145/143/332 146/144/333 147/145/334
f 145/143/335 147/145/334 148/146/336
f 148/146/336 147/145/337 149/147/338
f 148/146/339 149/147/340 150/148/341
f 150/148/342 149/147/338 151/149/343
f 150/148/342 151/149/343 152/150/344
f 146/144/333 153/151/345 154/152/346
f 146/144/333 154/152/347 147/145/348
f 147/145/334 154/152/346 155/153/349
f 147/145/350 155/153/351 149/147/352
f 149/147/353 155/153/351 156/154/354
f 149/147/338 156/154/355 151/149/356
f 153/151/357 157/155/358 158/156/359
f 153/151/360 158/156/361 154/152/347
f 154/152/346 158/156/361 159/157/362
f 154/152/363 159/157/364 155/153/349
f 155/153/365 159/157/364 160/158/366
f 155/153/365 160/158/367 156/154/368
f 161/159/369 162/160/370 163/161/371
f 161/159/369 163/161/372 164/162/373
f 164/162/374 163/161/371 165/163/375
f 164/162/373 165/163/375 166/164/376
f 166/164/377 165/163/378 167/165/379
f 166/164/380 167/165/379 168/45/381
f 162/160/382 169/166/383 170/167/384
f 162/160/385 170/167/386 163/161/387
f 163/161/388 170/167/389 171/168/390
f 163/161/388 171/168/391 165/163/392
f 165/163/378 171/168/391 172/169/393
f 165/163/378 172/169/102 167/165/394
f 169/166/395 173/170/396 174/171/397
f 169/166/398 174/171/399 170/167/386
f 170/167/384 174/171/400 175/172/401
f 170/167/389 175/172/402 171/168/403
f 171/168/391 175/172/402 176/173/404
f 171/168/391 176/173/404 172/169/104
f 177/174/405 178/175/406 179/176/407
f 177/174/408 179/176/409 180/177/410
f 180/177/410 179/176/407 181/178/411
f 180/177/412 181/178/411 182/179/413
f 182/179/414 181/178/415 183/180/416
f 182/179/417 183/180/250 184/181/248
f 178/175/418 185/182/419 186/183/420
f 178/175/418 186/183/420 179/176/421
f 179/176/409 186/183/422 187/184/423
f 179/176/409 187/184/423 181/178/424
f 181/178/411 187/184/425 188/185/252
f 181/178/426 188/185/427 183/180/428
f 185/182/429 189/24/54 190/186/430
f 185/182/429 190/186/431 186/183/420
f 186/183/420 190/186/430 191/187/432
f 186/183/420 191/187/60 187/184/425
f 187/184/425 191/187/433 192/188/257
f 187/184/423 192/188/76 188/185/252
f 193/189/434 194/190/435 195/191/436
f 193/189/437 195/191/438 196/192/439
f 196/192/440 195/191/441 197/193/442
f 196/192/440 197/193/443 198/194/444
f 198/194/444 197/193/443 199/195/445
f 198/194/446 199/195/445 200/196/447
f 194/190/435 201/197/448 202/198/449
f 194/190/435 202/198/449 195/191/450
f 195/191/451 202/198/452 203/199/453
f 195/191/450 203/199/453 197/193/443
f 197/193/443 203/199/454 204/200/455
f 197/193/456 204/200/455 199/195/457
f 201/197/458 205/201/344 206/202/459
f 201/197/448 206/202/460 202/198/452
f 202/198/449 206/202/459 207/203/461
f 202/198/462 207/203/355 203/199/463
f 203/199/464 207/203/355 208/204/366
f 203/199/465 208/204/466 204/200/455
f 209/205/467 210/206/468 211/207/469
f 209/205/467 211/207/470 212/208/471
f 212/208/472 211/207/473 213/209/474
f 212/208/475 213/209/476 214/210/477
f 214/210/478 213/209/479 215/211/480
f 214/210/481 215/211/482 216/212/483
f 210/206/468 217/213/484 218/214/485
f 210/206/468 218/214/486 211/207/470
f 211/207/487 218/214/488 219/215/489
f 211/207/490 219/215/491 213/209/492
f 213/209/492 219/215/493 220/216/494
f 213/209/495 220/216/496 215/211/497
f 217/213/498 221/217/499 222/218/500
f 217/213/501 222/218/500 218/214/502
f 218/214/488 222/218/500 223/219/503
f 218/214/485 223/219/504 219/215/489
f 219/215/489 223/219/503 224/220/505
f 219/215/506 224/220/507 220/216/494
f 225/221/508 226/222/509 227/223/510
f 225/221/511 227/223/512 228/224/513
f 228/224/514 227/223/510 229/225/515
f 228/224/516 229/225/517 230/226/518
f 230/226/519 229/225/520 231/227/521
f 230/226/522 231/227/136 232/61/523
f 226/222/524 233/228/525 234/229/526
f 226/222/527 234/229/526 227/223/528
f 227/223/529 234/229/530 235/230/531
f 227/223/528 235/230/532 229/225/520
f 229/225/520 235/230/532 236/231/533
f 229/225/515 236/231/141 231/227/521
f 233/228/534 237/232/535 238/233/536
f 233/228/537 238/233/538 234/229/539
f 234/229/540 238/233/541 239/234/542
f 234/229/543 239/234/544 235/230/532
f 235/230/545 239/234/546 240/235/547
f 235/230/548 240/235/549 236/231/550
f 241/236/551 242/237/552 243/238/553
f 241/236/551 243/238/553 244/239/554
f 244/239/555 243/238/553 245/240/556
f 244/239/557 245/240/558 246/241/559
f 246/241/560 245/240/558 247/242/400
f 246/241/560 247/242/397 248/243/561
f 242/237/552 249/244/562 250/245/563
f 242/237/552 250/245/564 243/238/565
f 243/238/553 250/245/566 251/246/567
f 243/238/553 251/246/568 245/240/558
f 245/240/569 251/246/570 252/247/401
f 245/240/571 252/247/401 247/242/400
f 249/244/572 253/40/573 254/248/87
f 249/244/562 254/248/574 250/245/564
f 250/245/566 254/248/575 255/249/576
f 250/245/564 255/249/576 251/246/577
f 251/246/570 255/249/576 256/250/404
f 251/246/570 256/250/578 252/247/401
f 257/251/579 258/252/580 259/253/581
f 257/251/579 259/253/582 260/254/583
f 260/254/584 259/253/585 261/255/586
f 260/254/584 261/255/587 262/256/588
f 262/256/588 261/255/586 263/257/589
f 262/256/588 263/257/590 264/258/591
f 258/252/592 265/259/593 266/260/594
f 258/252/595 266/260/596 259/253/581
f 259/253/597 266/260/598 267/261/599
f 259/253/585 267/261/599 261/255/586
f 261/255/586 267/261/600 268/262/601
f 261/255/586 268/262/602 263/257/589
f 265/259/603 269/263/483 270/264/604
f 265/259/605 270/264/482 266/260/594
f 266/260/596 270/264/482 271/265/606
f 266/260/607 271/265/494 267/261/599
f 267/261/608 271/265/494 272/266/507
f 267/261/599 272/266/609 268/262/610
f 273/267/611 274/268/612 275/269/613
f 273/267/614 275/269/615 276/270/616
f 276/270/617 275/269/615 277/271/618
f 276/270/616 277/271/618 278/272/619
f 278/272/620 277/271/621 279/273/172
f 278/272/619 279/273/622 280/274/623
f 274/268/624 281/275/625 282/276/626
f 274/268/624 282/276/627 275/269/628
f 275/269/628 282/276/626 283/277/629
f 275/269/630 283/277/629 277/271/631
f 277/271/621 283/277/629 284/278/175
f 277/271/618 284/278/175 279/273/171
f 281/275/632 285/279/633 286/280/634
f 281/275/635 286/280/636 282/276/637
f 282/276/638 286/280/639 287/281/640
f 282/276/626 287/281/641 283/277/642
f 283/277/643 287/281/640 288/282/178
f 283/277/643 288/282/644 284/278/175
f 289/283/645 290/284/646 291/285/647
f 289/283/648 291/285/647 292/286/649
f 292/286/649 291/285/650 293/287/651
f 292/286/652 293/287/651 294/288/653
f 294/288/653 293/287/654 295/289/655
f 294/288/656 295/289/657 296/13/29
f 290/284/658 297/290/659 298/291/660
f 290/284/646 298/291/660 291/285/647
f 291/285/647 298/291/661 299/292/662
f 291/285/647 299/292/663 293/287/664
f 293/287/664 299/292/662 300/293/665
f 293/287/666 300/293/35 295/289/32
f 297/290/659 301/294/667 302/295/668
f 297/290/669 302/295/668 298/291/661
f 298/291/661 302/295/670 303/296/285
f 298/291/671 303/296/285 299/292/672
f 299/292/673 303/296/674 304/297/675
f 299/292/663 304/297/39 300/293/676
f 305/298/677 306/299/678 307/300/679
f 305/298/680 307/300/679 308/301/681
f 308/301/682 307/300/679 309/302/683
f 308/301/684 309/302/685 310/303/686
f 310/303/687 309/302/683 311/304/538
f 310/303/688 311/304/689 312/305/535
f 306/299/690 313/306/691 314/307/692
f 306/299/693 314/307/694 307/300/679
f 307/300/695 314/307/692 315/308/696
f 307/300/697 315/308/698 309/302/683
f 309/302/699 315/308/698 316/309/544
f 309/302/685 316/309/700 311/304/541
f 313/306/701 317/56/702 318/310/703
f 313/306/704 318/310/705 314/307/692
f 314/307/706 318/310/703 319/311/707
f 314/307/706 319/311/130 315/308/698
f 315/308/698 319/311/130 320/312/549
f 315/308/698 320/312/549 316/309/544
f 17/17/44 1/1/708 4/4/5
f 17/17/41 4/4/5 18/18/42
f 18/18/709 4/4/710 6/6/711
f 18/18/712 6/6/711 25/25/713
f 25/25/63 6/6/714 8/8/286
f 25/25/713 8/8/286 29/29/715
f 33/33/716 17/17/44 20/20/717
f 33/33/716 20/20/48 34/34/79
f 34/34/79 20/20/717 22/22/50
f 34/34/718 22/22/51 41/41/719
f 41/41/720 22/22/51 24/24/721
f 41/41/720 24/24/722 45/45/98
f 49/49/107 33/33/78 36/36/723
f 49/49/724 36/36/82 50/50/121
f 50/50/725 36/36/82 38/38/726
f 50/50/727 38/38/86 57/57/122
f 57/57/133 38/38/88 40/40/728
f 57/57/133 40/40/729 61/61/134
f 1/1/1 49/49/724 52/52/730
f 1/1/731 52/52/112 2/2/2
f 2/2/14 52/52/111 54/54/116
f 2/2/2 54/54/119 9/9/15
f 9/9/732 54/54/119 56/56/733
f 9/9/28 56/56/733 13/13/29
f 81/81/734 65/65/148 68/68/153
f 81/81/734 68/68/153 82/82/735
f 82/82/194 68/68/736 70/70/737
f 82/82/181 70/70/737 89/89/207
f 89/89/207 70/70/738 72/72/739
f 89/89/210 72/72/158 93/93/740
f 97/97/741 81/81/180 84/84/186
f 97/97/223 84/84/188 98/98/742
f 98/98/743 84/84/744 86/86/189
f 98/98/235 86/86/745 105/104/236
f 105/104/746 86/86/192 88/88/747
f 105/104/236 88/88/748 109/108/749
f 113/112/750 97/97/741 100/100/751
f 113/112/750 100/100/751 114/113/278
f 114/113/752 100/100/225 102/102/231
f 114/113/753 102/102/754 121/120/755
f 121/120/756 102/102/757 104/29/64
f 121/120/288 104/29/64 125/8/758
f 65/65/145 113/112/750 116/115/759
f 65/65/145 116/115/263 66/66/146
f 66/66/760 116/115/266 118/117/272
f 66/66/159 118/117/269 73/73/761
f 73/73/160 118/117/272 120/119/667
f 73/73/160 120/119/667 77/77/762
f 145/143/763 129/127/294 132/130/764
f 145/143/765 132/130/766 146/144/767
f 146/144/767 132/130/303 134/132/305
f 146/144/333 134/132/305 153/151/768
f 153/151/357 134/132/769 136/134/770
f 153/151/357 136/134/770 157/155/771
f 161/159/772 145/143/763 148/146/773
f 161/159/774 148/146/336 162/160/775
f 162/160/775 148/146/336 150/148/341
f 162/160/370 150/148/341 169/166/395
f 169/166/395 150/148/776 152/150/777
f 169/166/778 152/150/779 173/170/780
f 177/174/781 161/159/782 164/162/783
f 177/174/781 164/162/784 178/175/418
f 178/175/418 164/162/373 166/164/785
f 178/175/786 166/164/785 185/182/429
f 185/182/429 166/164/785 168/45/381
f 185/182/429 168/45/787 189/24/788
f 129/127/789 177/174/790 180/177/410
f 129/127/791 180/177/412 130/128/792
f 130/128/792 180/177/793 182/179/414
f 130/128/792 182/179/794 137/135/324
f 137/135/795 182/179/413 184/181/248
f 137/135/324 184/181/248 141/139/325
f 209/205/796 193/189/437 196/192/439
f 209/205/467 196/192/439 210/206/797
f 210/206/468 196/192/798 198/194/799
f 210/206/468 198/194/800 217/213/801
f 217/213/802 198/194/444 200/196/803
f 217/213/484 200/196/804 221/217/805
f 225/221/806 209/205/796 212/208/807
f 225/221/808 212/208/809 226/222/527
f 226/222/527 212/208/475 214/210/810
f 226/222/811 214/210/477 233/228/812
f 233/228/534 214/210/813 216/212/814
f 233/228/812 216/212/483 237/232/815
f 241/236/551 225/221/508 228/224/513
f 241/236/551 228/224/513 242/237/816
f 242/237/817 228/224/514 230/226/518
f 242/237/818 230/226/518 249/244/562
f 249/244/819 230/226/820 232/61/821
f 249/244/562 232/61/821 253/40/573
f 193/189/434 241/236/551 244/239/557
f 193/189/437 244/239/554 194/190/822
f 194/190/823 244/239/824 246/241/825
f 194/190/435 246/241/825 201/197/826
f 201/197/448 246/241/560 248/243/827
f 201/197/448 248/243/561 205/201/828
f 273/267/829 257/251/579 260/254/584
f 273/267/614 260/254/584 274/268/612
f 274/268/624 260/254/583 262/256/588
f 274/268/624 262/256/588 281/275/830
f 281/275/831 262/256/588 264/258/832
f 281/275/625 264/258/591 285/279/633
f 289/283/833 273/267/829 276/270/834
f 289/283/835 276/270/834 290/284/836
f 290/284/837 276/270/838 278/272/839
f 290/284/837 278/272/840 297/290/659
f 297/290/659 278/272/841 280/274/762
f 297/290/669 280/274/762 301/294/667
f 305/298/842 289/283/645 292/286/649
f 305/298/843 292/286/649 306/299/690
f 306/299/844 292/286/845 294/288/656
f 306/299/678 294/288/653 313/306/704
f 313/306/691 294/288/653 296/13/29
f 313/306/691 296/13/29 317/56/120
f 257/251/846 305/298/843 308/301/681
f 257/251/847 308/301/681 258/252/595
f 258/252/848 308/301/681 310/303/688
f 258/252/595 310/303/849 265/259/593
f 265/259/850 310/303/686 312/305/535
f 265/259/593 312/305/535 269/263/851
o obj2
v 1.385680 0.006536 -1.398109
v 1.387385 0.006361 -1.398116
v 1.387298 0.006174 -1.399745
v 1.385670 0.006374 -1.399816
v 1.387158 0.005730 -1.401114
v 1.385659 0.005902 -1.401211
v 1.386964 0.005029 -1.402223
v 1.385645 0.005122 -1.402295
v 1.388778 0.005879 -1.398120
v 1.388665 0.005719 -1.399620
v 1.388448 0.005354 -1.400911
v 1.388127 0.004784 -1.401994
v 1.389856 0.005091 -1.398122
v 1.389771 0.005009 -1.399441
v 1.389530 0.004774 -1.400603
v 1.389133 0.004386 -1.401609
v -1.397663 0.038192 -1.385618
v -1.397672 0.038030 -1.387326
v -1.399304 0.037867 -1.387240
v -1.399372 0.038056 -1.385610
v -1.400680 0.037443 -1.387102
v -1.400775 0.037606 -1.385602
v -1.401800 0.036758 -1.386913
v -1.401871 0.036842 -1.385594
v -1.397684 0.037558 -1.388721
v -1.399186 0.037420 -1.388610
v -1.400483 0.037074 -1.388396
v -1.401575 0.036518 -1.388078
v -1.397698 0.036778 -1.389805
v -1.399018 0.036715 -1.389721
v -1.400184 0.036497 -1.389482
v -1.401196 0.036121 -1.389088
v -1.385045 0.049355 1.397882
v -1.386754 0.049219 1.397890
v -1.386671 0.049043 1.399520
v -1.385039 0.049206 1.399590
v -1.386541 0.048608 1.400893
v -1.385038 0.048746 1.400989
v -1.386363 0.047911 1.402008
v -1.385042 0.047974 1.402079
v -1.388157 0.048769 1.397898
v -1.388048 0.048619 1.399399
v -1.387840 0.048259 1.400694
v -1.387531 0.047691 1.401781
v -1.389253 0.048005 1.397906
v -1.389170 0.047932 1.399226
v -1.388934 0.047701 1.400390
v -1.388546 0.047313 1.401399
v 1.398298 0.017699 1.385391
v 1.398304 0.017551 1.387100
v 1.399931 0.017351 1.387015
v 1.400004 0.017524 1.385384
v 1.401297 0.016895 1.386882
v 1.401396 0.017043 1.385380
v 1.402401 0.016183 1.386698
v 1.402474 0.016254 1.385378
v 1.398305 0.017090 1.388499
v 1.399803 0.016918 1.388389
v 1.401092 0.016540 1.388178
v 1.402171 0.015957 1.387865
v 1.398301 0.016318 1.389589
v 1.399619 0.016226 1.389506
v 1.400780 0.015978 1.389269
v 1.401783 0.015577 1.388878
vn 0.9962 0.0527 -0.0690
vn 0.9762 0.0437 -0.2126
vn 0.9549 0.2014 -0.2183
vn 0.9786 0.1967 -0.0608
vn 0.9786 0.1956 -0.0641
vn 0.9549 0.2014 -0.2182
vn 0.8815 0.4214 -0.2131
vn 0.9786 0.1967 -0.0609
vn 0.8967 0.4382 -0.0620
vn 0.8815 0.4213 -0.2132
vn 0.8214 0.5370 -0.1923
vn 0.8967 0.4383 -0.0620
vn 0.8214 0.5370 -0.1922
vn 0.8253 0.5618 -0.0577
vn 0.8905 0.0442 -0.4529
vn 0.8779 0.1958 -0.4370
vn 0.9761 0.0437 -0.2127
vn 0.8779 0.1957 -0.4370
vn 0.8187 0.3978 -0.4142
vn 0.8187 0.3978 -0.4141
vn 0.7771 0.5053 -0.3752
vn 0.8815 0.4213 -0.2131
vn 0.8170 0.0401 -0.5752
vn 0.8156 0.1749 -0.5515
vn 0.8156 0.1748 -0.5516
vn 0.7747 0.3588 -0.5207
vn 0.8187 0.3979 -0.4141
vn 0.7214 0.4819 -0.4973
vn 0.7770 0.5054 -0.3753
vn 0.9968 0.0532 0.0595
vn 0.9791 0.1971 0.0504
vn 0.9568 0.2030 0.2080
vn 0.9968 0.0532 0.0596
vn 0.9568 0.2031 0.2080
vn 0.9780 0.0454 0.2034
vn 0.9780 0.0453 0.2034
vn 0.9568 0.2032 0.2080
vn 0.8818 0.1993 0.4275
vn 0.9781 0.0453 0.2033
vn 0.8945 0.0478 0.4444
vn 0.8945 0.0478 0.4445
vn 0.8818 0.1991 0.4275
vn 0.8206 0.1793 0.5427
vn 0.8945 0.0477 0.4445
vn 0.8206 0.1792 0.5427
vn 0.8222 0.0448 0.5675
vn 0.8972 0.4387 0.0502
vn 0.8833 0.4231 0.2018
vn 0.8834 0.4230 0.2018
vn 0.8223 0.4012 0.4035
vn 0.8223 0.4011 0.4036
vn 0.8818 0.1992 0.4274
vn 0.8224 0.4011 0.4035
vn 0.7794 0.3629 0.5107
vn 0.7794 0.3630 0.5107
vn 0.8972 0.4387 0.0503
vn 0.8257 0.5622 0.0457
vn 0.8230 0.5386 0.1805
vn 0.8834 0.4230 0.2017
vn 0.8833 0.4230 0.2018
vn 0.8231 0.5385 0.1805
vn 0.7804 0.5083 0.3642
vn 0.7804 0.5084 0.3641
vn 0.7803 0.5083 0.3642
vn 0.7259 0.4858 0.4869
vn 0.9953 -0.0754 0.0601
vn 0.9768 -0.0658 0.2039
vn 0.9520 -0.2232 0.2096
vn 0.9520 -0.2231 0.2096
vn 0.9743 -0.2189 0.0521
vn 0.9744 -0.2189 0.0520
vn 0.9520 -0.2231 0.2097
vn 0.8735 -0.4413 0.2053
vn 0.9744 -0.2189 0.0521
vn 0.8736 -0.4413 0.2052
vn 0.8870 -0.4586 0.0540
vn 0.8870 -0.4585 0.0539
vn 0.8735 -0.4414 0.2052
vn 0.8106 -0.5556 0.1849
vn 0.8871 -0.4585 0.0539
vn 0.8127 -0.5805 0.0504
vn 0.9768 -0.0660 0.2039
vn 0.8933 -0.0644 0.4449
vn 0.8771 -0.2157 0.4290
vn 0.9768 -0.0659 0.2038
vn 0.8771 -0.2158 0.4291
vn 0.8771 -0.2157 0.4291
vn 0.8131 -0.4164 0.4068
vn 0.9520 -0.2230 0.2096
vn 0.8131 -0.4165 0.4068
vn 0.8735 -0.4414 0.2053
vn 0.7687 -0.5230 0.3683
vn 0.8736 -0.4414 0.2052
vn 0.7687 -0.5230 0.3682
vn 0.8106 -0.5556 0.1850
vn 0.8210 -0.0588 0.5679
vn 0.8163 -0.1935 0.5442
vn 0.8163 -0.1935 0.5443
vn 0.8771 -0.2156 0.4291
vn 0.8164 -0.1935 0.5441
vn 0.7710 -0.3764 0.5137
vn 0.8771 -0.2157 0.4292
vn 0.7709 -0.3764 0.5138
vn 0.7147 -0.4983 0.4908
vn 0.8131 -0.4164 0.4067
vn 0.7687 -0.5229 0.3683
vn 0.9948 -0.0759 -0.0685
vn 0.9739 -0.2192 -0.0596
vn 0.9501 -0.2248 -0.2165
vn 0.9501 -0.2247 -0.2165
vn 0.9749 -0.0676 -0.2121
vn 0.9749 -0.0676 -0.2122
vn 0.9500 -0.2248 -0.2165
vn 0.8732 -0.2192 -0.4353
vn 0.8892 -0.0681 -0.4525
vn 0.8892 -0.0680 -0.4524
vn 0.8114 -0.1978 -0.5500
vn 0.8115 -0.1979 -0.5499
vn 0.8158 -0.0633 -0.5749
vn 0.9739 -0.2193 -0.0592
vn 0.8865 -0.4590 -0.0583
vn 0.8717 -0.4430 -0.2097
vn 0.8715 -0.4424 -0.2115
vn 0.8094 -0.4198 -0.4107
vn 0.8094 -0.4197 -0.4108
vn 0.7664 -0.3805 -0.5175
vn 0.7664 -0.3806 -0.5176
vn 0.8114 -0.1979 -0.5500
vn 0.8123 -0.5808 -0.0532
vn 0.8089 -0.5571 -0.1879
vn 0.8089 -0.5571 -0.1878
vn 0.7653 -0.5260 -0.3711
vn 0.8717 -0.4429 -0.2097
vn 0.8093 -0.4198 -0.4108
vn 0.8094 -0.4196 -0.4109
vn 0.7654 -0.5259 -0.3711
vn 0.7103 -0.5022 -0.4932
vn 0.8094 -0.4196 -0.4108
vn 0.7103 -0.5021 -0.4933
vn 0.7663 -0.3805 -0.5176
vn 0.9962 0.0526 -0.0690
vn 0.9791 0.1972 0.0504
vn 0.8972 0.4388 0.0503
vn 0.8967 0.4383 -0.0619
vn 0.8252 0.5618 -0.0578
vn 0.8257 0.5623 0.0458
vn 0.9954 -0.0753 0.0600
vn 0.9780 0.0455 0.2035
vn 0.9768 -0.0658 0.2038
vn 0.9768 -0.0660 0.2038
vn 0.9780 0.0454 0.2035
vn 0.8946 0.0478 0.4444
vn 0.8932 -0.0646 0.4449
vn 0.8933 -0.0644 0.4448
vn 0.8946 0.0477 0.4444
vn 0.8222 0.0448 0.5674
vn 0.8222 0.0447 0.5675
vn 0.9953 -0.0754 0.0600
vn 0.9744 -0.2189 0.0522
vn 0.9738 -0.2194 -0.0592
vn 0.8870 -0.4586 0.0538
vn 0.8870 -0.4586 0.0539
vn 0.8866 -0.4589 -0.0584
vn 0.8128 -0.5804 0.0504
vn 0.8123 -0.5808 -0.0531
vn 0.9749 -0.0676 -0.2123
vn 0.9749 -0.0675 -0.2122
vn 0.8892 -0.0680 -0.4525
vn 0.8905 0.0442 -0.4528
vn 0.8159 -0.0634 -0.5748
vn 0.8170 0.0402 -0.5753
vt 0.998000 0.998000
vt 0.998000 0.998610
vt 0.998580 0.998580
vt 0.998610 0.998000
vt 0.999070 0.998540
vt 0.999110 0.998000
vt 0.999470 0.998470
vt 0.999500 0.998000
vt 0.998000 0.999110
vt 0.998540 0.999070
vt 0.999000 0.999000
vt 0.999390 0.998890
vt 0.998000 0.999500
vt 0.998470 0.999470
vt 0.998890 0.999390
vt 0.999250 0.999250
vt 0.998000 0.002000
vt 0.998610 0.002000
vt 0.998580 0.001420
vt 0.998000 0.001390
vt 0.998540 0.000930
vt 0.998000 0.000890
vt 0.998470 0.000530
vt 0.998000 0.000500
vt 0.999110 0.002000
vt 0.999070 0.001460
vt 0.999000 0.001000
vt 0.998890 0.000610
vt 0.999500 0.002000
vt 0.999470 0.001530
vt 0.999390 0.001110
vt 0.999250 0.000750
vt 0.002000 0.002000
vt 0.002000 0.001390
vt 0.001420 0.001420
vt 0.001390 0.002000
vt 0.000930 0.001460
vt 0.000890 0.002000
vt 0.000530 0.001530
vt 0.000500 0.002000
vt 0.002000 0.000890
vt 0.001460 0.000930
vt 0.001000 0.001000
vt 0.000610 0.001110
vt 0.002000 0.000500
vt 0.001530 0.000530
vt 0.001110 0.000610
vt 0.000750 0.000750
vt 0.002000 0.998000
vt 0.001390 0.998000
vt 0.001420 0.998580
vt 0.002000 0.998610
vt 0.001460 0.999070
vt 0.002000 0.999110
vt 0.001530 0.999470
vt 0.002000 0.999500
vt 0.000890 0.998000
vt 0.000930 0.998540
vt 0.001000 0.999000
vt 0.001110 0.999390
vt 0.000500 0.998000
vt 0.000530 0.998470
vt 0.000610 0.998890
vt 0.000750 0.999250
s 0
usemtl mat1
f 321/313/852 322/314/853 323/315/854
f 321/313/852 323/315/854 324/316/855
f 324/316/856 323/315/857 325/317/858
f 324/316/859 325/317/858 326/318/860
f 326/318/860 325/317/861 327/319/862
f 326/318/863 327/319/864 328/320/865
f 322/314/853 329/321/866 330/322/867
f 322/314/868 330/322/867 323/315/857
f 323/315/857 330/322/869 331/323/870
f 323/315/857 331/323/871 325/317/861
f 325/317/858 331/323/871 332/324/872
f 325/317/873 332/324/872 327/319/864
f 329/321/866 333/325/874 334/326/875
f 329/321/866 334/326/876 330/322/869
f 330/322/869 334/326/875 335/327/877
f 330/322/869 335/327/877 331/323/878
f 331/323/878 335/327/877 336/328/879
f 331/323/878 336/328/879 332/324/880
f 337/329/881 338/330/882 339/331/883
f 337/329/884 339/331/885 340/332/886
f 340/332/887 339/331/888 341/333/889
f 340/332/890 341/333/889 342/334/891
f 342/334/892 341/333/893 343/335/894
f 342/334/895 343/335/896 344/336/897
f 338/330/882 345/337/898 346/338/899
f 338/330/882 346/338/900 339/331/885
f 339/331/885 346/338/900 347/339/901
f 339/331/883 347/339/902 341/333/903
f 341/333/893 347/339/904 348/340/905
f 341/333/893 348/340/906 343/335/896
f 345/337/907 349/341/908 350/342/909
f 345/337/898 350/342/909 346/338/910
f 346/338/911 350/342/912 351/343/913
f 346/338/911 351/343/914 347/339/904
f 347/339/904 351/343/915 352/344/916
f 347/339/902 352/344/916 348/340/905
f 353/345/917 354/346/918 355/347/919
f 353/345/917 355/347/920 356/348/921
f 356/348/922 355/347/923 357/349/924
f 356/348/925 357/349/926 358/350/927
f 358/350/928 357/349/929 359/351/930
f 358/350/931 359/351/930 360/352/932
f 354/346/933 361/353/934 362/354/935
f 354/346/936 362/354/937 355/347/923
f 355/347/919 362/354/938 363/355/939
f 355/347/940 363/355/941 357/349/942
f 357/349/924 363/355/939 364/356/943
f 357/349/944 364/356/945 359/351/946
f 361/353/934 365/357/947 366/358/948
f 361/353/934 366/358/949 362/354/950
f 362/354/938 366/358/951 367/359/952
f 362/354/953 367/359/954 363/355/939
f 363/355/939 367/359/952 368/360/955
f 363/355/956 368/360/955 364/356/957
f 369/361/958 370/362/959 371/363/960
f 369/361/958 371/363/961 372/364/962
f 372/364/963 371/363/964 373/365/965
f 372/364/962 373/365/965 374/366/966
f 374/366/967 373/365/965 375/367/968
f 374/366/967 375/367/969 376/368/970
f 370/362/971 377/369/972 378/370/973
f 370/362/971 378/370/973 371/363/960
f 371/363/964 378/370/974 379/371/975
f 371/363/964 379/371/976 373/365/965
f 373/365/965 379/371/976 380/372/977
f 373/365/965 380/372/978 375/367/979
f 377/369/972 381/373/980 382/374/981
f 377/369/972 382/374/982 378/370/973
f 378/370/973 382/374/982 383/375/983
f 378/370/984 383/375/983 379/371/985
f 379/371/986 383/375/987 384/376/988
f 379/371/989 384/376/990 380/372/991
f 337/329/881 321/313/992 324/316/859
f 337/329/881 324/316/859 338/330/882
f 338/330/993 324/316/855 326/318/863
f 338/330/882 326/318/863 345/337/907
f 345/337/994 326/318/995 328/320/996
f 345/337/907 328/320/996 349/341/997
f 353/345/998 337/329/881 340/332/886
f 353/345/998 340/332/999 354/346/1000
f 354/346/1001 340/332/1002 342/334/891
f 354/346/933 342/334/1003 361/353/1004
f 361/353/1005 342/334/1006 344/336/1007
f 361/353/934 344/336/1008 365/357/947
f 369/361/958 353/345/1009 356/348/925
f 369/361/958 356/348/1010 370/362/1011
f 370/362/1011 356/348/922 358/350/1012
f 370/362/1011 358/350/1013 377/369/972
f 377/369/1014 358/350/1013 360/352/1015
f 377/369/972 360/352/1015 381/373/1016
f 321/313/852 369/361/958 372/364/1017
f 321/313/852 372/364/963 322/314/853
f 322/314/853 372/364/1018 374/366/1019
f 322/314/853 374/366/967 329/321/1020
f 329/321/1020 374/366/967 376/368/1021
f 329/321/866 376/368/970 333/325/1022
o obj3
v 1.397663 -0.038192 1.385618
v -1.385680 -0.006536 1.398109
v -1.398298 -0.017699 -1.385391
v 1.385045 -0.049355 -1.397882
vn -0.9999 0.0114 0.0045
vn -0.9999 0.0114 0.0044
vt 0.998000 0.998000
vt 0.998000 0.002000
vt 0.002000 0.002000
vt 0.002000 0.998000
s 0
usemtl mat0
f 385/377/1023 386/378/1024 387/379/1023
f 385/377/1023 387/379/1023 388/380/1023
o obj4
v -1.397663 0.038192 -1.385618
v -1.385045 0.049355 1.397882
v 1.398298 0.017699 1.385391
v 1.385680 0.006536 -1.398109
vn 0.9999 -0.0114 -0.0045
vn 0.9999 -0.0114 -0.0044
vt 0.998000 0.002000
vt 0.002000 0.002000
vt 0.002000 0.998000
vt 0.998000 0.998000
s 0
usemtl mat1
f 389/381/1025 390/382/1025 391/383/1025
f 389/381/1025 391/383/1025 392/384/1026
o obj5
v 1.403823 0.012046 1.385389
v 1.403316 -0.032666 1.385571
v 1.390698 -0.043829 -1.397929
v 1.391205 0.000883 -1.398111
v -1.385083 0.043788 1.403494
v -1.385591 -0.000924 1.403675
v 1.397752 -0.032580 1.391185
v 1.398259 0.012132 1.391003
v -1.403316 0.032666 -1.385571
v -1.403823 -0.012046 -1.385389
v -1.391205 -0.000883 1.398111
v -1.390698 0.043829 1.397929
v 1.385591 0.000924 -1.403675
v 1.385083 -0.043788 -1.403494
v -1.398259 -0.012132 -1.391003
v -1.397752 0.032580 -1.391185
vn -0.0045 -0.0040 -1.0000
vn -0.0045 -0.0041 -1.0000
vn -0.0114 -0.9999 0.0041
vn -0.0113 -0.9999 0.0041
vn 0.0045 0.0040 1.0000
vn 0.0045 0.0039 1.0000
vn 0.0113 0.9999 -0.0041
vn 0.0114 0.9999 -0.0041
vt 0.998000 1.017000
vt 0.998000 1.001000
vt 0.002000 1.001000
vt 0.002000 1.017000
vt 1.017000 0.002000
vt 1.001000 0.002000
vt 1.001000 0.998000
vt 1.017000 0.998000
vt 0.002000 -0.017000
vt 0.002000 -0.001000
vt 0.998000 -0.001000
vt 0.998000 -0.017000
vt -0.017000 0.998000
vt -0.001000 0.998000
vt -0.001000 0.002000
vt -0.017000 0.002000
s 0
usemtl mat0
f 393/385/1027 394/386/1027 395/387/1028
f 393/385/1027 395/387/1027 396/388/1028
f 397/389/1029 398/390/1030 399/391/1030
f 397/389/1029 399/391/1029 400/392/1029
f 401/393/1031 402/394/1031 403/395/1032
f 401/393/1031 403/395/1031 404/396/1031
f 405/397/1033 406/398/1034 407/399/1033
f 405/397/1034 407/399/1034 408/400/1034
